<svg width="91" height="90" viewBox="0 0 91 90" fill="none" xmlns="http://www.w3.org/2000/svg">
<g id="_&#208;&#160;&#194;&#160;&#208;&#160;&#194;&#181;&#208;&#160;&#194;&#182;&#208;&#160;&#209;&#145;&#208;&#160;&#209;&#152;_&#208;&#161;&#226;&#128;&#147;&#208;&#160;&#194;&#183;&#208;&#160;&#209;&#149;&#208;&#160;&#194;&#187;&#208;&#161;&#208;&#143;&#208;&#161;&#226;&#128;&#160;&#208;&#161;&#226;&#128;&#147;&#208;&#161;&#226;&#128;&#148;" clip-path="url(#clip0_381_243)">
<path id="Vector" d="M36.7573 66.5254C33.2445 70.5161 31.7568 77.1843 34.2231 87.7918" stroke="#6D6D6D" stroke-width="2" stroke-miterlimit="22.93"/>
<path id="Vector_2" d="M88.0677 63.1446C88.0217 60.1449 87.5156 56.8926 86.4622 53.4198C83.0995 42.3214 78.7386 30.8051 82.4969 16.9689C86.0574 3.8494 76.5535 -2.72875 64.9106 4.39145C53.2631 11.5117 35.203 17.2078 21.1772 12.6968C7.15596 8.19042 3.93587 14.0887 5.50911 22.6238C10.1966 48.0681 -3.38294 56.8237 3.92207 74.1602C8.5682 85.185 21.4762 83.003 17.9709 73.2231C13.6053 59.658 22.8332 54.582 16.9174 31.9627C15.4592 26.3814 18.7529 23.887 23.698 24.7231C36.1368 26.827 52.9411 26.0598 61.8239 21.4799C66.1802 19.2336 69.6119 21.2594 68.5217 27.2496C67.6707 31.9122 67.9145 37.3281 69.3221 42.8589" stroke="#6D6D6D" stroke-width="2" stroke-miterlimit="22.93"/>
<path id="Vector_3" d="M43.0674 88.7837C48.1246 83.378 55.6277 83.6694 63.0112 84.5086C95.5383 88.1963 87.4593 62.6351 88.0674 62.027" stroke="#6D6D6D" stroke-width="2" stroke-miterlimit="22.93"/>
<path id="Vector_4" fill-rule="evenodd" clip-rule="evenodd" d="M63.3849 43.4623L54.631 54.7132C54.4192 54.9862 54.5803 55.3889 54.9211 55.4351L67.6583 57.254C68.0405 57.3095 68.1787 57.7908 67.8886 58.0407L45.2553 77.6731C44.9284 77.9554 44.4311 77.6592 44.5232 77.2334L47.392 64.2192C47.4473 63.9601 47.2723 63.7102 47.0144 63.6731L38.3986 62.5068C38.0532 62.4606 37.8921 62.0579 38.1039 61.7802L53.7422 41.6805C53.8389 41.5555 54.0001 41.4907 54.1567 41.5092L63.0856 42.731C63.4264 42.7773 63.5922 43.18 63.3803 43.4576L63.3849 43.4623Z" stroke="#C10000" stroke-width="2" stroke-miterlimit="22.93"/>
</g>
<defs>
<clipPath id="clip0_381_243">
<rect width="90" height="90" fill="white" transform="translate(0.5)"/>
</clipPath>
</defs>
</svg>
