<svg width="91" height="92" viewBox="0 0 91 92" fill="none" xmlns="http://www.w3.org/2000/svg">
<g id="icon">
<g id="Group 802">
<path id="Vector" d="M36.8778 68.2927C33.9627 72.3344 32.7281 79.0879 34.7748 89.831" stroke="#6D6D6D" stroke-width="2" stroke-miterlimit="22.93"/>
<path id="Vector_2" d="M89.6169 64.5349C89.5699 61.4445 89.0536 58.0938 87.9786 54.5159C84.5472 43.0818 80.0971 31.2171 83.9322 16.9624C87.5655 3.446 77.8673 -3.33114 65.9864 4.00445C54.1007 11.34 35.6713 17.2085 21.3587 12.5611C7.05087 7.91834 3.76494 13.9951 5.37035 22.7883C10.1537 49.0024 -3.70351 58.0228 3.75086 75.8838C8.49198 87.2421 21.6639 84.9941 18.0869 74.9183C13.6321 60.9428 23.0486 55.7133 17.0119 32.4097C15.5239 26.6596 18.8849 24.0898 23.9312 24.9511C36.6242 27.1187 53.7721 26.3283 62.8366 21.6099C67.282 19.2956 70.7838 21.3827 69.6713 27.5541C68.8029 32.3577 69.0517 37.9375 70.4881 43.6356" stroke="#6D6D6D" stroke-width="2" stroke-miterlimit="22.93"/>
<path id="Vector_3" d="M44.1304 91.0001C49.294 85.2073 56.9549 85.5197 64.4937 86.4189C97.7051 90.3706 87.4765 64.0856 90.0771 63.6312" stroke="#6D6D6D" stroke-width="2" stroke-miterlimit="22.93"/>
<g id="Group">
<path id="Vector_4" d="M71.9782 64.3159C73.4902 57.9323 69.5829 51.5215 63.2511 49.9972C56.9193 48.4728 50.5606 52.4121 49.0487 58.7958C47.5367 65.1795 51.444 71.5902 57.7758 73.1146C64.1076 74.6389 70.4663 70.6996 71.9782 64.3159Z" stroke="#C10000" stroke-width="2" stroke-miterlimit="22.93"/>
<path id="Vector_5" d="M60.5128 67.4313C63.7327 67.4313 66.343 64.7997 66.343 61.5534C66.343 58.3071 63.7327 55.6754 60.5128 55.6754C57.2929 55.6754 54.6826 58.3071 54.6826 61.5534C54.6826 64.7997 57.2929 67.4313 60.5128 67.4313Z" stroke="#C10000" stroke-width="2" stroke-miterlimit="22.93"/>
<path id="Vector_6" d="M47.6463 74.5256C44.3556 71.208 42.3184 66.6174 42.3184 61.5535C42.3184 56.4895 44.3556 51.8989 47.6463 48.5813" stroke="#C10000" stroke-width="2" stroke-miterlimit="22.93"/>
<path id="Vector_7" d="M73.3799 48.5813C76.6705 51.8989 78.7078 56.4895 78.7078 61.5535C78.7078 66.6174 76.6705 71.208 73.3799 74.5256" stroke="#C10000" stroke-width="2" stroke-miterlimit="22.93"/>
</g>
</g>
</g>
</svg>
