<svg width="87" height="90" viewBox="0 0 87 90" fill="none" xmlns="http://www.w3.org/2000/svg">
<g id="_&#195;&#144;&#194;&#160;&#195;&#144;&#194;&#181;&#195;&#144;&#194;&#182;&#195;&#144;&#194;&#184;&#195;&#144;&#194;&#188;_&#195;&#145;&#226;&#128;&#147;&#195;&#144;&#194;&#183;&#195;&#144;&#194;&#190;&#195;&#144;&#194;&#187;&#195;&#145;&#194;&#143;&#195;&#145;&#226;&#128;&#160;&#195;&#145;&#226;&#128;&#147;&#195;&#145;&#226;&#128;&#148;" clip-path="url(#clip0_381_270)">
<path id="Vector" d="M61.6088 81.1547C70.4596 81.1547 77.6346 73.9143 77.6346 64.9828C77.6346 56.0513 70.4596 48.8109 61.6088 48.8109C52.758 48.8109 45.583 56.0513 45.583 64.9828C45.583 73.9143 52.758 81.1547 61.6088 81.1547Z" stroke="#6D6D6D" stroke-width="2" stroke-linecap="round" stroke-linejoin="round"/>
<path id="Vector_2" d="M75.5025 73.0366L83.7801 81.3897C85.4166 83.0411 85.4166 85.7049 83.7801 87.3563C82.1437 89.0076 79.5039 89.0076 77.8675 87.3563L69.5898 79.0031" stroke="#6D6D6D" stroke-width="2" stroke-linecap="round" stroke-linejoin="round"/>
<g id="Group">
<path id="Vector_3" d="M45.374 50.625H22.2969" stroke="#6D6D6D" stroke-width="2" stroke-linecap="round" stroke-linejoin="round"/>
<path id="Vector_4" d="M64.7444 43.4109C65.2321 42.1594 65.4969 40.7953 65.4969 39.375C65.4969 33.1594 60.508 28.125 54.3485 28.125H20.9033" stroke="#6D6D6D" stroke-width="2" stroke-linecap="round" stroke-linejoin="round"/>
<path id="Vector_5" d="M44.5936 39.375H12.5419C9.4622 39.375 6.6751 40.6406 4.65446 42.6656C2.64775 44.7047 1.39355 47.5172 1.39355 50.625C1.39355 56.8406 6.38246 61.875 12.5419 61.875H40.2457" stroke="#6D6D6D" stroke-width="2" stroke-linecap="round" stroke-linejoin="round"/>
<path id="Vector_6" d="M43.2 18.2812H17.4194C11.6481 18.2812 6.96777 23.0042 6.96777 28.8281C6.96777 34.654 11.6481 39.375 17.4194 39.375H51.5613" stroke="#6D6D6D" stroke-width="2" stroke-linecap="round" stroke-linejoin="round"/>
<path id="Vector_7" d="M23.6904 1.40625V8.4375C23.6904 13.8737 28.0582 18.2812 33.4453 18.2812H43.2001" stroke="#6D6D6D" stroke-width="2" stroke-linecap="round" stroke-linejoin="round"/>
<path id="Vector_8" d="M33.4453 1.40625V4.21875C33.4453 6.54911 35.3166 8.4375 37.6259 8.4375H44.5937C49.9807 8.4375 54.3485 12.8451 54.3485 18.2812C54.3485 23.7174 49.9807 28.125 44.5937 28.125H29.2646" stroke="#6D6D6D" stroke-width="2" stroke-linecap="round" stroke-linejoin="round"/>
<g id="Group_2">
<path id="Vector_9" d="M45.374 50.625H22.2968H15.3291" stroke="#6D6D6D" stroke-width="2" stroke-linecap="round" stroke-linejoin="round"/>
<path id="Vector_10" d="M41.0819 71.7188H33.4453H23.6904" stroke="#6D6D6D" stroke-width="2" stroke-linecap="round" stroke-linejoin="round"/>
<g id="Group_3">
<path id="Vector_11" d="M43.2001 88.5937V81.5625C43.2001 76.1263 38.8323 71.7188 33.4453 71.7188H23.6904" stroke="#6D6D6D" stroke-width="2" stroke-linecap="round" stroke-linejoin="round"/>
<path id="Vector_12" d="M33.4452 88.5937V85.7812C33.4452 83.4509 31.5739 81.5625 29.2646 81.5625H22.2968C16.9098 81.5625 12.542 77.1549 12.542 71.7187C12.542 66.2826 16.9098 61.875 22.2968 61.875H32.0517" stroke="#6D6D6D" stroke-width="2" stroke-linecap="round" stroke-linejoin="round"/>
</g>
</g>
</g>
<path id="Vector_13" d="M54.6611 56.6438C55.4395 57.9637 56.7714 58.94 58.2565 59.2735" stroke="#C10000" stroke-width="2" stroke-linecap="round" stroke-linejoin="round"/>
<path id="Vector_14" d="M50.813 66.8813C51.2689 65.4971 52.5728 64.4424 54.0102 64.2917" stroke="#C10000" stroke-width="2" stroke-linecap="round" stroke-linejoin="round"/>
<path id="Vector_15" d="M56.9284 75.3388C55.7877 74.1998 55.6822 72.1707 56.6975 70.9152" stroke="#C10000" stroke-width="2" stroke-linecap="round" stroke-linejoin="round"/>
<path id="Vector_16" d="M59.0728 65.8246C60.7211 66.0094 62.1445 67.4478 62.3277 69.1112" stroke="#C10000" stroke-width="2" stroke-linecap="round" stroke-linejoin="round"/>
<path id="Vector_17" d="M64.2446 74.2359C65.3694 74.4147 66.5619 74.1074 67.4677 73.4103" stroke="#C10000" stroke-width="2" stroke-linecap="round" stroke-linejoin="round"/>
<path id="Vector_18" d="M70.8977 68.7094C69.6873 68.1228 68.887 66.7648 68.9547 65.4108" stroke="#C10000" stroke-width="2" stroke-linecap="round" stroke-linejoin="round"/>
<path id="Vector_19" d="M64.0356 62.5259C64.5333 61.9433 65.029 61.3627 65.5267 60.7802" stroke="#C10000" stroke-width="2" stroke-linecap="round" stroke-linejoin="round"/>
<path id="Vector_20" d="M60.2095 54.6208C61.2845 54.5163 62.3595 54.4118 63.4345 54.3074" stroke="#C10000" stroke-width="2" stroke-linecap="round" stroke-linejoin="round"/>
<path id="Vector_21" d="M70.46 58.5482V59.5929" stroke="#C10000" stroke-width="2" stroke-linecap="round" stroke-linejoin="round"/>
</g>
<defs>
<clipPath id="clip0_381_270">
<rect width="86.4" height="90" fill="white"/>
</clipPath>
</defs>
</svg>
