<svg width="81" height="90" viewBox="0 0 81 90" fill="none" xmlns="http://www.w3.org/2000/svg">
<g id="_x3C_Layer_x3E_" clip-path="url(#clip0_381_303)">
<g id="Group">
<path id="Vector" d="M17.1765 90C16.6683 90 16.2529 89.5884 16.2529 89.0783C16.2529 82.7777 20.2553 74.744 20.4266 74.4049C20.6561 73.9499 21.2108 73.7673 21.6639 73.9962C22.1199 74.2252 22.3058 74.7758 22.0764 75.2308C22.0357 75.3091 18.1002 83.2153 18.1002 89.0783C18.1002 89.5855 17.6877 90 17.1765 90Z" fill="#6D6D6D"/>
<path id="Vector_2" d="M62.3498 90C61.8415 90 61.4261 89.5885 61.4261 89.0784C61.4261 83.2154 57.4877 75.3092 57.4499 75.2309C57.2205 74.7759 57.4064 74.2224 57.8624 73.9963C58.3184 73.7674 58.8731 73.9528 59.0997 74.405C59.271 74.744 63.2734 82.7778 63.2734 89.0784C63.2734 89.5856 62.861 90 62.3498 90Z" fill="#6D6D6D"/>
<path id="Vector_3" d="M20.8596 50.5152C20.3949 50.5152 19.994 50.1645 19.9447 49.6921C19.5961 46.4577 19.3115 44.1044 19.1024 42.6988C18.6435 39.5919 16.7643 30.2569 16.744 30.1642C16.6539 29.6802 16.256 29.5787 16.134 29.5585C16.0149 29.5382 15.6054 29.5063 15.3672 29.9236L10.4093 38.6645C10.1566 39.108 9.59607 39.2616 9.14878 39.0123C8.7044 38.7631 8.55046 38.2008 8.80315 37.7574L13.7611 29.0165C14.3013 28.063 15.3527 27.5616 16.4361 27.7413C17.5194 27.921 18.3501 28.7325 18.5534 29.8106C18.629 30.1845 20.4617 39.276 20.9264 42.4293C21.1384 43.861 21.423 46.2375 21.7774 49.495C21.8326 49.9993 21.4666 50.4543 20.9583 50.5094C20.9235 50.5123 20.8915 50.5152 20.8567 50.5152H20.8596Z" fill="#6D6D6D"/>
<path id="Vector_4" d="M28.1239 35.978C25.8788 35.978 23.6714 35.7403 21.7486 35.4302C19.5354 35.0737 18.211 34.6999 18.1558 34.6854C17.665 34.5463 17.3832 34.0391 17.5197 33.5493C17.6592 33.0595 18.1703 32.7755 18.6583 32.9146C18.6699 32.9175 19.945 33.274 22.042 33.6131C25.8149 34.2217 32.7682 34.8274 36.9564 32.0422C37.3805 31.7611 37.9526 31.8742 38.2344 32.2973C38.5161 32.7204 38.4028 33.2914 37.9788 33.5754C35.2457 35.3925 31.6383 35.978 28.121 35.978H28.1239Z" fill="#6D6D6D"/>
<path id="Vector_5" d="M59.2362 51.4339C59.2043 51.4339 59.1723 51.4339 59.1375 51.4281C58.6292 51.373 58.2632 50.9209 58.3155 50.4137C58.7163 46.6838 59.0329 43.9972 59.2653 42.4293C59.73 39.276 61.5627 30.1845 61.6382 29.799C61.8386 28.7325 62.6693 27.921 63.7527 27.7413C64.836 27.5616 65.8875 28.063 66.4277 29.0165L71.3856 37.7574C71.6383 38.1979 71.4814 38.7602 71.0371 39.0123C70.5927 39.2645 70.0321 39.108 69.7794 38.6645L64.8215 29.9236C64.5833 29.5063 64.1738 29.5382 64.0547 29.5585C63.9327 29.5787 63.5377 29.6802 63.4477 30.1526C63.4245 30.2598 61.5453 39.5919 61.0864 42.6988C60.8598 44.2435 60.5432 46.904 60.1482 50.6108C60.096 51.0832 59.698 51.4339 59.2304 51.4339H59.2362Z" fill="#6D6D6D"/>
<path id="Vector_6" d="M52.0738 35.978C48.5565 35.978 44.9491 35.3925 42.216 33.5754C41.792 33.2943 41.6787 32.7204 41.9604 32.2973C42.2451 31.8742 42.8172 31.7611 43.2384 32.0422C47.4237 34.8274 54.3799 34.2217 58.1528 33.6131C60.2498 33.274 61.5278 32.9175 61.5394 32.9146C62.0303 32.7755 62.5385 33.0624 62.678 33.5493C62.8145 34.0391 62.5327 34.5492 62.0419 34.6854C61.9867 34.6999 60.6623 35.0737 58.4491 35.4302C56.5263 35.7403 54.3189 35.978 52.0738 35.978Z" fill="#6D6D6D"/>
<path id="Vector_7" d="M0.923452 27.5066C0.815987 27.5066 0.708521 27.4892 0.603961 27.4486C0.127629 27.2718 -0.11925 26.7444 0.0579218 26.2662C0.269948 25.6923 5.34695 12.1984 14.011 9.39009C20.4153 7.315 27.1391 5.61957 29.7328 4.98776C30.1714 4.88053 30.4764 4.49217 30.4764 4.04006V0.92162C30.4764 0.414439 30.8888 0 31.4 0C31.9112 0 32.3236 0.411541 32.3236 0.92162V4.04296C32.3236 5.34424 31.4406 6.46873 30.1743 6.77884C27.6009 7.40774 20.9294 9.08868 14.586 11.1435C6.76723 13.6736 1.83836 26.7705 1.78898 26.9038C1.65247 27.2747 1.29813 27.5066 0.923452 27.5066Z" fill="#6D6D6D"/>
<path id="Vector_8" d="M9.79927 20.4496C9.60758 20.4496 9.41879 20.3916 9.25323 20.2699C8.8408 19.9685 8.75367 19.3917 9.05573 18.9831C11.1615 16.1226 13.2933 14.3257 15.3933 13.6447C17.2986 13.0273 19.3985 12.3926 21.6321 11.755C22.1229 11.6159 22.6341 11.8971 22.7735 12.3868C22.9129 12.8766 22.6283 13.3867 22.1403 13.5258C19.9242 14.1576 17.8475 14.7865 15.9654 15.3981C14.2634 15.9487 12.3901 17.5659 10.5457 20.0757C10.3656 20.3221 10.0839 20.4525 9.80218 20.4525L9.79927 20.4496Z" fill="#6D6D6D"/>
<path id="Vector_9" d="M79.2742 27.5066C78.8995 27.5066 78.5451 27.2776 78.4086 26.9038C78.3593 26.7734 73.4275 13.6736 65.6145 11.1435C59.2711 9.08869 52.5996 7.40484 50.0262 6.77884C48.7599 6.46873 47.874 5.34424 47.874 4.04296V0.92162C47.874 0.414439 48.2894 0 48.7976 0C49.3059 0 49.7213 0.411541 49.7213 0.92162V4.04296C49.7213 4.49218 50.0262 4.88343 50.4648 4.99066C53.0585 5.62246 59.7823 7.3179 66.1867 9.39299C74.8507 12.2013 79.9277 25.6952 80.1397 26.2691C80.3169 26.7444 80.0729 27.2747 79.5937 27.4515C79.4891 27.4892 79.3816 27.5095 79.2742 27.5095V27.5066Z" fill="#6D6D6D"/>
</g>
<g id="Group_2">
<path id="Vector_10" d="M65.4579 72.7704C65.3388 72.7704 65.2197 72.7472 65.1035 72.6979C64.633 72.5037 64.4094 71.9647 64.6069 71.4952C67.7756 63.9019 67.2615 55.1002 63.233 47.9504C62.9833 47.507 63.1401 46.9476 63.5845 46.6984C64.0318 46.4491 64.5923 46.6056 64.8421 47.049C69.1494 54.6886 69.6984 64.0932 66.3118 72.2052C66.1636 72.5588 65.8209 72.7733 65.4579 72.7733V72.7704Z" fill="#C10000"/>
<path id="Vector_11" d="M14.0661 72.7703C13.7031 72.7703 13.3604 72.5559 13.2151 72.2023C9.82853 64.0932 10.3775 54.6886 14.6848 47.0461C14.9346 46.6027 15.498 46.4462 15.9424 46.6954C16.3868 46.9447 16.5436 47.5069 16.2939 47.9474C12.2625 55.1001 11.7484 63.899 14.9171 71.4922C15.1146 71.9617 14.891 72.5008 14.4205 72.695C14.3043 72.7442 14.1823 72.7674 14.0661 72.7674V72.7703Z" fill="#C10000"/>
<path id="Vector_12" d="M39.7617 85.3688C26.8049 85.3688 16.2617 74.8484 16.2617 61.9196C16.2617 48.9908 26.8049 38.4705 39.7617 38.4705C52.7185 38.4705 63.2617 48.9879 63.2617 61.9196C63.2617 74.8513 52.7214 85.3688 39.7617 85.3688ZM39.7617 40.3108C27.8215 40.3108 18.109 50.0052 18.109 61.9196C18.109 73.834 27.8215 83.5284 39.7617 83.5284C51.702 83.5284 61.4174 73.8369 61.4174 61.9196C61.4174 50.0023 51.702 40.3108 39.7617 40.3108Z" fill="#C10000"/>
<g id="Group_3">
<path id="Vector_13" d="M32.1493 68.7854C31.9896 68.7854 31.8298 68.7419 31.6875 68.6608L25.3238 64.9946C22.1493 63.1658 21.0601 59.1026 22.8928 55.9349C24.0778 53.8888 26.2852 52.6165 28.6553 52.6165C29.8141 52.6165 30.9614 52.9237 31.9722 53.5062L38.3358 57.1724C38.5479 57.2941 38.7018 57.497 38.7657 57.7317C38.8296 57.9665 38.7976 58.2186 38.6757 58.4302L32.951 68.3246C32.829 68.5361 32.6286 68.6897 32.3904 68.7535C32.312 68.7738 32.2336 68.7854 32.1522 68.7854H32.1493ZM28.6524 54.4597C26.9387 54.4597 25.3442 55.3784 24.4874 56.8565C23.1629 59.1431 23.9529 62.079 26.2475 63.4006L31.8124 66.606L36.6135 58.3085L31.0485 55.1031C30.3195 54.6829 29.4917 54.4597 28.6553 54.4597H28.6524Z" fill="#C10000"/>
<path id="Vector_14" d="M32.5532 60.3169C32.3963 60.3169 32.2395 60.2763 32.0913 60.1923L29.1027 58.4707C28.9603 58.3896 28.8122 58.349 28.6554 58.349C28.3184 58.349 28.0309 58.5142 27.8624 58.804C27.6069 59.2445 27.0434 59.3953 26.6019 59.1402C26.1604 58.8852 26.0094 58.3229 26.265 57.8824C26.7617 57.0216 27.6562 56.5087 28.6554 56.5087C29.1404 56.5087 29.6022 56.6333 30.0263 56.8767L33.015 58.6012C33.4564 58.8562 33.6104 59.4184 33.3548 59.859C33.1834 60.1546 32.8726 60.3198 32.5561 60.3198L32.5532 60.3169Z" fill="#C10000"/>
<path id="Vector_15" d="M47.3773 68.7854C47.2989 68.7854 47.2176 68.7738 47.1391 68.7535C46.9039 68.6897 46.7006 68.5361 46.5786 68.3246L40.8568 58.4302C40.7348 58.2186 40.6999 57.9665 40.7638 57.7317C40.8277 57.497 40.9817 57.2941 41.1937 57.1724L47.5574 53.5062C48.5681 52.9237 49.7154 52.6165 50.8772 52.6165C53.2472 52.6165 55.4546 53.8859 56.6367 55.9349C58.4694 59.1026 57.3774 63.1658 54.2057 64.9946L47.842 68.6608C47.6997 68.7419 47.5429 68.7854 47.3802 68.7854H47.3773ZM42.9131 58.3085L47.7142 66.606L53.2763 63.4006C55.5708 62.079 56.3579 59.1431 55.0335 56.8565C54.1795 55.3784 52.5821 54.4597 50.8714 54.4597C50.0349 54.4597 49.2042 54.6829 48.4752 55.1031L42.9102 58.3085H42.9131Z" fill="#C10000"/>
<path id="Vector_16" d="M48.8035 63.4788C48.484 63.4788 48.1761 63.3136 48.0048 63.018C47.7521 62.5775 47.9031 62.0152 48.3417 61.7602L51.3304 60.0386C51.7719 59.7836 52.3382 59.9343 52.5909 60.3748C52.8465 60.8154 52.6955 61.3776 52.254 61.6326L49.2624 63.3571C49.1172 63.4411 48.9574 63.4817 48.8006 63.4817L48.8035 63.4788Z" fill="#C10000"/>
<g id="Group_4">
<path id="Vector_17" d="M37.9322 71.4489C37.6272 71.4489 37.3281 71.2982 37.1509 71.02L35.963 69.1507C35.69 68.7217 35.8178 68.1537 36.2476 67.8813C36.6775 67.6088 37.2497 67.7363 37.5198 68.1653L38.7106 70.0346C38.9836 70.4635 38.8558 71.0316 38.426 71.304C38.272 71.3996 38.1007 71.446 37.9322 71.446V71.4489Z" fill="#C10000"/>
<path id="Vector_18" d="M42.559 73.8776C42.3935 73.8776 42.2279 73.8341 42.0769 73.7414C41.6441 73.4747 41.5076 72.9096 41.7719 72.4749L42.9308 70.5852C43.198 70.1505 43.7644 70.0143 44.2001 70.2809C44.6357 70.5476 44.7722 71.1127 44.505 71.5474L43.3462 73.4371C43.1719 73.7211 42.8698 73.8776 42.559 73.8776Z" fill="#C10000"/>
<path id="Vector_19" d="M41.1966 67.4726C40.7813 67.4726 40.4008 67.1885 40.302 66.7683L39.7821 64.615C39.663 64.1194 39.968 63.6238 40.4618 63.505C40.9584 63.3861 41.4551 63.6904 41.5742 64.186L42.0941 66.3394C42.2132 66.835 41.9082 67.3306 41.4144 67.4494C41.3418 67.4668 41.2692 67.4755 41.1966 67.4755V67.4726Z" fill="#C10000"/>
<path id="Vector_20" d="M39.0128 77.3612C38.946 77.3612 38.8763 77.3525 38.8066 77.338L36.6428 76.8453C36.1461 76.7323 35.8353 76.2396 35.9486 75.744C36.0619 75.2484 36.5585 74.9383 37.0523 75.0513L39.2161 75.544C39.7128 75.657 40.0236 76.1497 39.9103 76.6453C39.8115 77.0714 39.431 77.3612 39.0099 77.3612H39.0128Z" fill="#C10000"/>
</g>
</g>
</g>
</g>
<defs>
<clipPath id="clip0_381_303">
<rect width="80.198" height="90" fill="white"/>
</clipPath>
</defs>
</svg>
