<svg width="88" height="90" viewBox="0 0 88 90" fill="none" xmlns="http://www.w3.org/2000/svg">
<g id="Layer_1" clip-path="url(#clip0_381_335)">
<path id="Vector" d="M2.43848 46.0143V11.0651C2.43848 10.8437 2.61899 10.6666 2.84463 10.6666H20.8844C21.1101 10.6666 21.2906 10.8437 21.2906 11.0651V46.0143" stroke="#6D6D6D" stroke-width="2" stroke-miterlimit="22.93"/>
<path id="Vector_2" d="M38.9644 89.6097V68.4011" stroke="#6D6D6D" stroke-width="2" stroke-miterlimit="22.93"/>
<path id="Vector_3" d="M9.50781 63.6881V89.6097" stroke="#6D6D6D" stroke-width="2" stroke-miterlimit="22.93"/>
<path id="Vector_4" d="M27.1818 46.0143H2.43848V56.9058C2.43848 61.3024 5.88325 64.8664 10.1328 64.8664H15.5658" stroke="#6D6D6D" stroke-width="2" stroke-miterlimit="22.93"/>
<path id="Vector_5" d="M27.1816 69.5794H34.1993C45.3526 69.5794 54.6398 61.46 56.638 50.7273" stroke="#6D6D6D" stroke-width="2" stroke-miterlimit="22.93"/>
<path id="Vector_6" d="M66.064 45.6091C58.1723 46.0451 50.4677 46.1733 44.2709 45.774C33.2232 45.0632 24.9104 37.849 29.7865 24.7286C32.1076 18.8957 33.0648 14.5467 33.1908 10.6666" stroke="#6D6D6D" stroke-width="2" stroke-miterlimit="22.93"/>
<path id="Vector_7" d="M74.8559 41.643C61.3843 55.8109 65.8115 67.6101 59.209 82.9329C57.76 86.2989 60.4426 88.8729 63.9903 88.3082C70.5855 87.2595 72.0418 88.7409 77.6845 88.3705C80.6482 88.1762 81.1701 84.5609 77.9728 83.6552C70.1111 81.4296 69.8045 77.5063 71.4943 73.022C75.1223 63.3751 81.2394 55.1875 85.393 43.1867C86.5682 39.7987 86.7799 35.4427 81.8636 33.5031C71.8009 29.5395 58.125 27.9885 47.2119 28.4065" stroke="#6D6D6D" stroke-width="2" stroke-miterlimit="22.93"/>
<path id="Vector_8" fill-rule="evenodd" clip-rule="evenodd" d="M53.8913 3.62393L48.7423 10.5674C48.617 10.7372 48.7136 10.9861 48.914 11.0125L56.4103 12.1327C56.6357 12.1666 56.718 12.4646 56.5463 12.6192L43.2247 24.7373C43.0315 24.9108 42.7381 24.7298 42.7954 24.4658L44.4843 16.4323C44.5165 16.2739 44.4163 16.1192 44.2624 16.0966L39.1921 15.3762C38.9918 15.3461 38.8952 15.0971 39.0204 14.9274L48.2199 2.5264C48.2771 2.44719 48.3701 2.40948 48.4632 2.42079L53.7195 3.17511C53.9199 3.20529 54.0165 3.45421 53.8913 3.62393Z" stroke="#C10000" stroke-width="2" stroke-miterlimit="22.93"/>
</g>
<defs>
<clipPath id="clip0_381_335">
<rect width="87.5342" height="90" fill="white"/>
</clipPath>
</defs>
</svg>
