<svg width="120" height="120" viewBox="0 0 120 120" fill="none" xmlns="http://www.w3.org/2000/svg">
<circle cx="60" cy="60" r="60" fill="white"/>
<g clip-path="url(#clip0_406_96)">
<path d="M50.1651 53.2701C49.1354 53.2701 47.8974 53.1361 45.4636 52.8709C44.0624 52.7202 42.3208 52.5303 39.9771 52.2959C39.4847 52.2484 39.1274 51.8129 39.1752 51.3244C39.2258 50.8359 39.6648 50.4814 40.1543 50.5317C42.5037 50.7662 44.2509 50.956 45.6577 51.1095C48.794 51.4501 51.3403 51.4528 53.2967 51.1179C54.8554 50.8499 57.2161 50.4451 61.4055 49.9064C63.994 49.5742 65.1504 47.101 65.1504 44.8008C65.1504 43.7792 64.7959 43.3493 64.4864 43.0925C64.1094 42.7771 64.0616 42.216 64.3795 41.8419C64.6974 41.4679 65.2602 41.4204 65.64 41.7358C66.515 42.4672 66.9399 43.4693 66.9399 44.8008C66.9399 48.4995 64.8072 51.2574 61.6362 51.665C57.4833 52.201 55.1481 52.6001 53.6006 52.8653C52.0109 53.1389 51.1921 53.2701 50.1651 53.2701Z" fill="#6D6D6D"/>
<path d="M83.3686 62.4651C82.0547 62.4651 80.7801 62.0464 79.7053 61.248C78.3604 60.2515 77.5022 58.7915 77.2856 57.1362C76.8101 53.5018 76.7707 51.2212 76.7454 49.711C76.7313 48.868 76.7201 48.2594 76.6469 47.7709C76.5709 47.288 76.9086 46.8358 77.3953 46.7604C77.8821 46.6851 78.3379 47.02 78.4139 47.503C78.5067 48.1087 78.518 48.7675 78.5348 49.6803C78.5602 51.2379 78.5996 53.3734 79.061 56.9073C79.2157 58.0825 79.8263 59.1181 80.7801 59.8272C81.7283 60.5306 82.8959 60.8181 84.0692 60.6339C85.1806 60.458 86.1822 59.8746 86.8884 58.9897C87.1951 58.6073 87.7578 58.5403 88.1433 58.8446C88.5316 59.1489 88.5963 59.7071 88.2896 60.0896C87.3049 61.3234 85.9037 62.1385 84.3478 62.3813C84.0214 62.4316 83.695 62.4567 83.3714 62.4567L83.3686 62.4651Z" fill="#6D6D6D"/>
<path d="M71.841 62.4902C67.3955 62.4902 65.229 60.1063 64.4806 59.0316C64.3849 58.9116 64.3174 58.7692 64.2921 58.6101C64.2161 58.1272 64.5481 57.6722 65.0349 57.5968C65.2431 57.5661 65.6398 57.5773 65.9493 58.0239C66.5711 58.9144 68.4618 60.9605 72.5641 60.6953C74.9894 60.539 77.1249 58.6576 77.2262 56.5891C77.2516 56.1006 77.6736 55.7238 78.1632 55.7461C78.6556 55.7684 79.0354 56.1843 79.0129 56.6728C78.8666 59.6513 76.0276 62.2474 72.6823 62.4651C72.3925 62.4846 72.1111 62.493 71.841 62.493V62.4902ZM64.5312 59.0847C64.5622 59.1182 64.5988 59.1489 64.6381 59.1768C64.6016 59.1489 64.565 59.1182 64.5312 59.0847Z" fill="#6D6D6D"/>
<path d="M49.4111 63.2188C40.8746 63.2188 32.4112 61.8175 32.2621 61.7895C31.7753 61.7086 31.449 61.248 31.5306 60.7679C31.6122 60.285 32.0764 59.9584 32.5632 60.0421C42.3517 61.6974 59.5794 62.6856 64.1319 58.2947C64.9788 57.4768 65.3108 56.5137 65.1448 55.3469C64.8634 53.3817 63.1724 51.8576 61.1213 51.7264C60.6289 51.6957 60.2547 51.2714 60.2857 50.7829C60.3166 50.2944 60.7471 49.9231 61.2367 49.9538C64.1262 50.1409 66.515 52.3042 66.9145 55.0957C67.1649 56.8375 66.6472 58.3421 65.3783 59.5648C62.4324 62.4064 55.8992 63.2188 49.4111 63.2188Z" fill="#6D6D6D"/>
<path d="M57.6943 84.4868H57.6858C54.5374 84.4561 51.3468 84.3416 48.204 84.1462C44.5097 83.9145 40.7732 83.5656 37.0958 83.1022C36.6063 83.0408 36.2602 82.597 36.3221 82.1112C36.384 81.6255 36.8314 81.2822 37.3209 81.3436C40.9589 81.8014 44.6588 82.1475 48.3165 82.3764C51.4256 82.5718 54.5824 82.6863 57.6999 82.7142C58.1923 82.7198 58.589 83.119 58.5862 83.6102C58.5806 84.0987 58.181 84.4895 57.6915 84.4895L57.6943 84.4868Z" fill="#6D6D6D"/>
<path d="M59.3429 72.9162C53.1811 72.9162 47.0192 72.5784 40.8912 71.9057C40.3988 71.8527 40.0471 71.4116 40.1006 70.9259C40.154 70.4374 40.5986 70.0885 41.0882 70.1415C54.4444 71.6098 67.975 71.4591 81.3003 69.6921C81.7898 69.6279 82.24 69.9685 82.3047 70.4542C82.3694 70.9399 82.0262 71.3865 81.5366 71.4507C74.179 72.4249 66.7595 72.9134 59.34 72.9134L59.3429 72.9162Z" fill="#6D6D6D"/>
<path d="M61.0229 109.333C55.5927 109.333 52.9197 102.438 52.7312 96.0321C52.5315 89.235 55.0243 81.7623 60.9695 81.4189C61.6025 81.3827 62.2356 81.4636 62.939 81.6618C64.3317 80.0176 66.3941 79.0518 68.5775 79.0518C69.3259 79.0518 70.0574 79.1607 70.758 79.3756C71.7765 76.4921 74.5508 74.4906 77.7076 74.4906C77.9384 74.4906 78.1691 74.5018 78.397 74.5213C78.7487 71.6182 80.8561 69.1589 83.6809 68.3522C83.6415 68.0479 83.6218 67.7437 83.6218 67.4366C83.6218 64.8852 84.9752 62.5293 87.1332 61.2117C86.7843 60.3492 86.6015 59.4196 86.6015 58.4845C86.6015 56.7649 87.1895 55.1487 88.2756 53.8451C87.1501 52.5303 86.517 50.8471 86.517 49.108C86.517 47.5755 87.001 46.0933 87.8929 44.8595C87.1163 43.8294 86.6324 42.6179 86.4805 41.3395C86.2244 41.3674 85.9656 41.3813 85.7067 41.3813C84.1677 41.3813 82.6821 40.9068 81.4441 40.0331C80.0654 41.4288 78.1972 42.2132 76.1967 42.2132C74.4382 42.2132 72.7557 41.5907 71.4361 40.4769C70.0546 42.2578 67.9078 43.3242 65.6007 43.3242C64.0532 43.3242 62.5592 42.844 61.3155 41.9592C59.9847 43.1036 58.2684 43.7457 56.493 43.7457C54.47 43.7457 52.5455 42.9138 51.164 41.479C49.8248 42.6598 48.0916 43.3214 46.2768 43.3214C43.8149 43.3214 41.519 42.082 40.1656 40.0889C38.9445 40.9263 37.4955 41.3785 35.9902 41.3785C35.0899 41.3785 34.2092 41.2166 33.382 40.9068C33.3061 42.2411 32.8615 43.5279 32.099 44.6278C33.1035 45.9063 33.6493 47.4695 33.6493 49.108C33.6493 50.5149 33.2357 51.8939 32.4732 53.0691C33.5677 54.3755 34.1614 56.0029 34.1614 57.7224C34.1614 59.1293 33.7478 60.5083 32.9853 61.6835C34.0798 62.9899 34.6735 64.6173 34.6735 66.3368C34.6735 67.4869 34.4034 68.609 33.8829 69.6279C35.3684 71.0069 36.2041 72.9078 36.2041 74.954C36.2041 75.984 35.9846 76.9973 35.5654 77.9296C37.2592 79.3114 38.2496 81.3659 38.2496 83.5683C38.2496 87.5964 34.9464 90.8735 30.8864 90.8735C26.8263 90.8735 23.5231 87.5964 23.5231 83.5683C23.5231 82.5383 23.7426 81.525 24.1618 80.5927C22.468 79.2109 21.4805 77.1564 21.4805 74.954C21.4805 73.8039 21.7506 72.6817 22.2711 71.6629C20.7855 70.2839 19.9499 68.3829 19.9499 66.3368C19.9499 64.9327 20.3635 63.5509 21.1259 62.3757C20.0315 61.0693 19.4378 59.4419 19.4378 57.7196C19.4378 56.3155 19.8514 54.9338 20.6167 53.7586C19.5222 52.4522 18.9285 50.8248 18.9285 49.1024C18.9285 47.623 19.3843 46.1798 20.2228 44.9683C19.2183 43.6898 18.6753 42.1266 18.6753 40.4881C18.6753 38.6736 19.3618 36.9234 20.5801 35.5863C20.1665 34.6595 19.9527 33.6518 19.9527 32.633C19.9442 28.6105 23.2474 25.3333 27.3074 25.3333C29.3389 25.3333 31.2352 26.1429 32.6195 27.5805C33.6578 27.0473 34.8085 26.7681 35.9931 26.7681C38.455 26.7681 40.7481 28.0075 42.1042 30.0006C43.3253 29.1632 44.7743 28.711 46.2824 28.711C48.3054 28.711 50.2299 29.5428 51.6114 30.9776C52.9507 29.7969 54.6839 29.1353 56.5015 29.1353C58.0489 29.1353 59.543 29.6154 60.7866 30.4975C62.1174 29.353 63.8337 28.711 65.6091 28.711C67.3845 28.711 69.0502 29.3335 70.3726 30.4473C71.754 28.6691 73.9008 27.6 76.2052 27.6C77.7442 27.6 79.2298 28.0745 80.4678 28.9483C81.8465 27.5525 83.7147 26.7681 85.7152 26.7681C86.6212 26.7681 87.4962 26.9273 88.329 27.2427C89.6795 26.0228 91.4549 25.3333 93.2922 25.3333C97.3523 25.3333 100.655 28.6105 100.655 32.6385C100.655 33.8835 100.34 35.0922 99.7382 36.1725C100.664 37.4203 101.168 38.9332 101.168 40.4937C101.168 42.0541 100.684 43.5084 99.7916 44.745C100.737 46.0012 101.252 47.5253 101.252 49.1108C101.252 50.8304 100.664 52.4466 99.5778 53.7502C100.706 55.065 101.339 56.7482 101.339 58.4873C101.339 61.0386 99.9858 63.3946 97.8278 64.7122C98.1766 65.5747 98.3595 66.5043 98.3595 67.4394C98.3595 70.7054 96.1227 73.5778 93.0249 74.4655C93.0643 74.7697 93.084 75.074 93.084 75.3811C93.084 79.4091 89.7808 82.6863 85.7208 82.6863C85.4901 82.6863 85.2622 82.6751 85.0315 82.6556C84.6038 86.2816 81.4863 89.1066 77.7161 89.1066C76.9677 89.1066 76.2361 88.9977 75.5355 88.78C74.517 91.6635 71.7428 93.6678 68.5859 93.6678C68.2961 93.6678 68.0063 93.651 67.7193 93.6175C68.1751 95.2673 68.3946 97.4278 68.3946 98.8208C68.3946 104.521 65.0211 109.336 61.0314 109.336L61.0229 109.333ZM61.2621 83.1859C61.2002 83.1859 61.1355 83.1859 61.0736 83.1915C56.5296 83.4539 54.335 89.824 54.5179 95.9819C54.6867 101.735 56.9741 107.561 61.0229 107.561C63.9941 107.561 66.5995 103.474 66.5995 98.818C66.5995 96.543 66.0649 93.6427 65.5022 92.8527C65.2743 92.5317 65.2827 92.1018 65.5275 91.7947C65.7723 91.4849 66.1887 91.3732 66.5573 91.5128C67.2044 91.764 67.8853 91.8896 68.5831 91.8896C71.2448 91.8896 73.5463 90.011 74.0556 87.4233C74.109 87.1553 74.2835 86.9237 74.5311 86.8008C74.7787 86.678 75.0685 86.6752 75.3189 86.7925C76.0701 87.147 76.8776 87.3284 77.7161 87.3284C80.7914 87.3284 83.2926 84.8468 83.2926 81.7958C83.2926 81.7623 83.2926 81.726 83.2926 81.6925V81.6367C83.2842 81.3603 83.4052 81.0951 83.6218 80.9221C83.8385 80.749 84.1255 80.6848 84.3956 80.749C84.8317 80.8551 85.2762 80.9081 85.7208 80.9081C88.7961 80.9081 91.2974 78.4265 91.2974 75.3755C91.2974 74.9093 91.2383 74.4459 91.1229 73.9993C91.061 73.7564 91.1032 73.4996 91.2439 73.2903C91.3818 73.0809 91.604 72.9413 91.8545 72.9023C94.5471 72.4919 96.5757 70.1415 96.5757 67.4338C96.5757 66.4959 96.3337 65.5691 95.8779 64.7541C95.7569 64.5363 95.7316 64.2795 95.8104 64.045C95.8892 63.8105 96.0608 63.6179 96.2887 63.5146C98.2751 62.6158 99.5553 60.6395 99.5553 58.4789C99.5553 56.9352 98.8969 55.4502 97.749 54.4034C97.5661 54.2387 97.462 54.0042 97.4592 53.7586C97.4564 53.5129 97.5576 53.2784 97.7377 53.1082C98.8547 52.053 99.4709 50.6294 99.4709 49.1024C99.4709 47.7067 98.9448 46.3752 97.9909 45.3508C97.6786 45.0158 97.673 44.4994 97.9797 44.1588C98.8857 43.1455 99.3865 41.8419 99.3865 40.4881C99.3865 39.1342 98.8885 37.8362 97.9853 36.8229C97.7152 36.5186 97.6871 36.072 97.915 35.737C98.5424 34.8187 98.8744 33.7467 98.8744 32.633C98.8744 29.5819 96.3731 27.1003 93.2978 27.1003C91.7447 27.1003 90.2479 27.7507 89.1956 28.8868C88.9283 29.1744 88.5035 29.2553 88.1489 29.085C87.3893 28.7194 86.5733 28.5351 85.7236 28.5351C83.9735 28.5351 82.3613 29.3279 81.295 30.7069C81.1431 30.9051 80.9123 31.0279 80.6619 31.0502C80.4115 31.0698 80.1639 30.9888 79.9782 30.8185C78.9484 29.8806 77.6092 29.3642 76.2108 29.3642C74.1681 29.3642 72.2886 30.4724 71.3095 32.2561C71.1688 32.5129 70.91 32.6832 70.6173 32.7139C70.3247 32.7446 70.0349 32.6302 69.8436 32.4096C68.7801 31.1814 67.2382 30.478 65.6119 30.478C63.9857 30.478 62.5563 31.1312 61.5041 32.2729C61.1721 32.633 60.6093 32.6581 60.2464 32.3315C59.2194 31.4103 57.8914 30.9023 56.5071 30.9023C54.8639 30.9023 53.3108 31.6169 52.2445 32.8674C52.0672 33.0768 51.7971 33.1885 51.5242 33.1801C51.2485 33.1689 50.9924 33.0321 50.832 32.8088C49.7854 31.3489 48.086 30.478 46.2881 30.478C44.8644 30.478 43.5054 31.0111 42.4672 31.9826C42.259 32.178 41.9692 32.2617 41.6878 32.2087C41.4064 32.1556 41.1673 31.9714 41.0463 31.7146C40.1291 29.7829 38.1483 28.5351 35.9987 28.5351C34.9014 28.5351 33.8406 28.8506 32.929 29.4507C32.5379 29.7075 32.0146 29.621 31.7276 29.2525C30.6613 27.8847 29.0519 27.1003 27.3159 27.1003C24.2406 27.1003 21.7393 29.5819 21.7393 32.633C21.7393 33.5737 21.9841 34.506 22.4455 35.3267C22.6481 35.6868 22.575 36.1362 22.2711 36.4126C21.1231 37.4594 20.4647 38.9444 20.4647 40.4881C20.4647 41.9229 21.019 43.2851 22.0235 44.3207C22.3414 44.6501 22.3583 45.1637 22.0601 45.5127C21.1963 46.512 20.7236 47.7877 20.7236 49.1052C20.7236 50.6042 21.3201 52.0083 22.4005 53.0579C22.7297 53.3789 22.7607 53.8926 22.4709 54.2471C21.6605 55.2408 21.2357 56.4411 21.2357 57.7196C21.2357 59.2186 21.8322 60.6227 22.9126 61.6723C23.2418 61.9905 23.2727 62.5069 22.9829 62.8615C22.1754 63.8552 21.7478 65.0555 21.7478 66.334C21.7478 68.0842 22.5581 69.6949 23.9677 70.7501C24.3419 71.0292 24.4348 71.5512 24.1787 71.9392C23.5907 72.8353 23.2812 73.8765 23.2812 74.9456C23.2812 76.8159 24.2265 78.5493 25.8078 79.5766C26.2073 79.8362 26.3311 80.3582 26.0892 80.7657C25.5883 81.6116 25.3239 82.5774 25.3239 83.56C25.3239 86.611 27.8252 89.0926 30.9004 89.0926C33.9757 89.0926 36.477 86.611 36.477 83.56C36.477 81.6897 35.5316 79.9562 33.9504 78.929C33.5508 78.6694 33.427 78.1446 33.669 77.7398C34.1698 76.894 34.4343 75.9282 34.4343 74.9456C34.4343 73.1954 33.6268 71.5847 32.2144 70.5295C31.8402 70.2476 31.7473 69.7284 32.0034 69.3376C32.5914 68.4415 32.9009 67.4003 32.9009 66.3312C32.9009 64.8322 32.3044 63.4281 31.224 62.3785C30.8948 62.0575 30.8639 61.5439 31.1537 61.1866C31.9612 60.1928 32.3888 58.9925 32.3888 57.714C32.3888 56.215 31.7923 54.8109 30.7119 53.7614C30.3827 53.4403 30.3518 52.9267 30.6416 52.5694C31.4491 51.5757 31.8767 50.3753 31.8767 49.0969C31.8767 47.6621 31.3225 46.2998 30.318 45.2642C30.0001 44.9348 29.9832 44.4212 30.2842 44.0723C31.1452 43.0729 31.6207 41.7973 31.6207 40.4797C31.6207 40.1754 31.5954 39.8656 31.5419 39.5529C31.4828 39.204 31.6376 38.8523 31.9358 38.6625C32.2369 38.4699 32.6224 38.4726 32.9178 38.668C33.8322 39.2738 34.9014 39.592 36.0043 39.592C37.428 39.592 38.7842 39.0589 39.8224 38.0874C40.0306 37.892 40.3204 37.8083 40.6018 37.8613C40.8831 37.9144 41.1223 38.0986 41.2433 38.3554C42.1605 40.2871 44.1413 41.5349 46.2909 41.5349C47.934 41.5349 49.4871 40.8175 50.5507 39.5697C50.7279 39.3603 50.9952 39.2459 51.271 39.257C51.5467 39.2682 51.8027 39.405 51.9631 39.6283C53.0098 41.0854 54.7092 41.9564 56.5071 41.9564C58.0658 41.9564 59.5627 41.3032 60.615 40.1615C60.947 39.8014 61.5097 39.7763 61.8726 40.1028C62.8996 41.024 64.2276 41.5321 65.6119 41.5321C67.6574 41.5321 69.5341 40.4239 70.5132 38.6401C70.6539 38.3833 70.9128 38.213 71.2054 38.1823C71.4952 38.1516 71.7878 38.2661 71.9791 38.4866C73.0427 39.7148 74.5845 40.4183 76.2108 40.4183C77.958 40.4183 79.5731 39.6255 80.6394 38.2465C80.7914 38.0483 81.0221 37.9255 81.2725 37.9032C81.5201 37.8809 81.7705 37.9646 81.9534 38.1349C82.9832 39.0728 84.3224 39.5892 85.7208 39.5892C86.1935 39.5892 86.6662 39.5306 87.1192 39.4134C87.3921 39.3436 87.6819 39.405 87.9013 39.5781C88.1208 39.7539 88.2446 40.0191 88.2362 40.2983V40.3513C88.2333 40.3932 88.2305 40.4322 88.2305 40.4741C88.2305 41.8698 88.7567 43.2013 89.7105 44.2286C90.0228 44.5636 90.0284 45.0772 89.7217 45.4177C88.813 46.431 88.3149 47.7346 88.3149 49.0885C88.3149 50.6322 88.9733 52.1172 90.1213 53.164C90.3042 53.3287 90.4083 53.5632 90.4111 53.8088C90.4111 54.0545 90.3126 54.2889 90.1325 54.4592C89.0155 55.5144 88.3994 56.938 88.3994 58.4649C88.3994 59.4029 88.6413 60.3296 89.0971 61.1447C89.2181 61.3597 89.2434 61.6165 89.1646 61.8537C89.0859 62.0882 88.9142 62.2808 88.6863 62.3841C86.6999 63.283 85.4197 65.2593 85.4197 67.4199C85.4197 67.886 85.4788 68.3494 85.5942 68.7961C85.6561 69.0389 85.6139 69.2957 85.4732 69.5051C85.3353 69.7144 85.1131 69.854 84.8626 69.8931C82.17 70.3034 80.1414 72.6538 80.1414 75.3615C80.1414 75.395 80.1414 75.4285 80.1414 75.4648V75.5206C80.1498 75.797 80.0289 76.0622 79.8122 76.2352C79.5956 76.4083 79.3086 76.4725 79.0385 76.4083C78.6024 76.3022 78.1578 76.2492 77.7133 76.2492C75.0516 76.2492 72.7501 78.1278 72.2408 80.7155C72.1873 80.9863 72.0129 81.2152 71.7653 81.338C71.5177 81.4608 71.2279 81.4636 70.9775 81.3464C70.2262 80.9919 69.4187 80.8104 68.5803 80.8104C66.7543 80.8104 65.0436 81.7009 63.9997 83.1915C63.7662 83.5237 63.3385 83.6577 62.9559 83.5181C62.3088 83.2808 61.7713 83.1692 61.2649 83.1692L61.2621 83.1859Z" fill="#085EAC"/>
<path d="M66.2278 93.2267C66.1209 93.2267 66.0112 93.2072 65.9071 93.1681C64.6382 92.6824 63.5296 91.8589 62.6996 90.7842C62.3985 90.3962 62.4745 89.8379 62.8656 89.542C63.2567 89.2433 63.8194 89.3187 64.1176 89.7067C64.7451 90.5218 65.5863 91.1471 66.5486 91.5128C67.01 91.6886 67.2379 92.2023 67.0607 92.6601C66.9228 93.0118 66.5852 93.2295 66.2278 93.2295V93.2267Z" fill="#085EAC"/>
<path d="M32.4086 40.3066C32.237 40.3066 32.0654 40.2592 31.9134 40.1587C30.6164 39.3017 29.6091 38.0316 29.0745 36.5856C28.9057 36.1251 29.142 35.617 29.6063 35.4467C30.0705 35.2765 30.5826 35.5137 30.7542 35.9743C31.1594 37.0686 31.9219 38.0316 32.9038 38.6792C33.3146 38.95 33.4272 39.5027 33.1514 39.9103C32.9798 40.1671 32.6956 40.3038 32.4058 40.3038L32.4086 40.3066Z" fill="#085EAC"/>
<path d="M87.333 41.1776C86.9363 41.1776 86.5705 40.9124 86.4692 40.5132C86.3454 40.0387 86.6324 39.5557 87.1107 39.4329C88.5963 39.0533 89.8709 38.0651 90.6108 36.7224C90.8472 36.2925 91.3902 36.1334 91.8235 36.3679C92.2568 36.6024 92.4172 37.1411 92.1808 37.571C91.2073 39.3436 89.522 40.6472 87.5581 41.1496C87.4821 41.1692 87.409 41.1776 87.333 41.1776Z" fill="#085EAC"/>
<path d="M35.8916 95.9149C35.6243 95.9149 35.3599 95.7976 35.1854 95.5715C33.939 93.9804 32.248 90.1562 32.1749 89.9942C31.9779 89.5448 32.1833 89.0228 32.6363 88.8274C33.0893 88.6292 33.6154 88.8358 33.8152 89.2852C33.8321 89.3215 35.4893 93.0676 36.5978 94.4829C36.9017 94.8709 36.8314 95.4264 36.4403 95.7279C36.2771 95.8535 36.083 95.9149 35.8916 95.9149Z" fill="#085EAC"/>
</g>
<defs>
<clipPath id="clip0_406_96">
<rect width="82.6667" height="84" fill="white" transform="translate(18.6665 25.3333)"/>
</clipPath>
</defs>
</svg>
