<svg width="120" height="120" viewBox="0 0 120 120" fill="none" xmlns="http://www.w3.org/2000/svg">
<circle cx="60" cy="60" r="60" fill="white"/>
<g clip-path="url(#clip0_381_489)">
<path d="M35.2144 72.1888C29.3502 72.1888 24.5801 67.3928 24.5801 61.4968V34.4608C24.5801 28.5649 29.3502 23.7689 35.2144 23.7689C41.0785 23.7689 45.8487 28.5649 45.8487 34.4608V61.4968C45.8487 67.3928 41.0785 72.1888 35.2144 72.1888ZM35.2144 25.5283C30.3147 25.5283 26.33 29.5346 26.33 34.4608V61.4968C26.33 66.423 30.3147 70.4294 35.2144 70.4294C40.114 70.4294 44.0988 66.423 44.0988 61.4968V34.4608C44.0988 29.5346 40.114 25.5283 35.2144 25.5283Z" fill="#6D6D6D"/>
<path d="M40.7206 62.3779C40.2355 62.3779 39.8442 61.9844 39.8442 61.4968V59.1639C39.8442 58.679 40.2355 58.2828 40.7206 58.2828C41.2056 58.2828 41.5969 58.6763 41.5969 59.1639V61.4968C41.5969 61.9844 41.2056 62.3779 40.7206 62.3779Z" fill="#6D6D6D"/>
<path d="M40.7206 55.2656C40.2355 55.2656 39.8442 54.8722 39.8442 54.3846V44.8895C39.8442 44.4047 40.2355 44.0085 40.7206 44.0085C41.2056 44.0085 41.5969 44.4019 41.5969 44.8895V54.3846C41.5969 54.8694 41.2056 55.2656 40.7206 55.2656Z" fill="#6D6D6D"/>
<path d="M29.7059 35.3419C29.2237 35.3419 28.8296 34.9485 28.8296 34.4608C28.8296 30.9227 31.6928 28.044 35.2118 28.044C35.6968 28.044 36.0881 28.4374 36.0881 28.9251C36.0881 29.4127 35.6968 29.8061 35.2118 29.8061C32.6573 29.8061 30.5822 31.8952 30.5822 34.4608C30.5822 34.9485 30.1882 35.3419 29.7059 35.3419Z" fill="#6D6D6D"/>
<path d="M28.5151 96.0773C28.3525 96.0773 28.1871 96.0329 28.0411 95.936C27.6332 95.6728 27.5175 95.1269 27.7793 94.7197C27.8206 94.6532 31.9735 88.0285 29.43 82.0606C26.5861 75.3888 27.9584 69.0247 28.019 68.7587C28.1265 68.2849 28.5922 67.9857 29.0662 68.0937C29.5374 68.2018 29.835 68.67 29.7303 69.1438C29.7166 69.2048 28.4296 75.2365 31.042 81.3679C33.9576 88.2059 29.4492 95.3735 29.2563 95.6755C29.0883 95.936 28.8072 96.08 28.5206 96.08L28.5151 96.0773Z" fill="#6D6D6D"/>
<path d="M41.9138 96.0772C41.6272 96.0772 41.3461 95.9359 41.178 95.6727C40.9851 95.3707 36.4768 88.2031 39.3923 81.3651C42.0158 75.2115 40.7178 69.202 40.7041 69.1438C40.5966 68.67 40.8942 68.199 41.3654 68.0909C41.8394 67.9856 42.3051 68.2821 42.4126 68.7559C42.4732 69.0246 43.8456 75.386 41.0017 82.0578C38.4499 88.0451 42.611 94.6531 42.6523 94.7169C42.9141 95.1241 42.7984 95.67 42.3905 95.9332C42.2445 96.0274 42.0792 96.0745 41.9166 96.0745L41.9138 96.0772Z" fill="#6D6D6D"/>
<path d="M20.1628 75.9901C19.9699 75.9901 19.777 75.9264 19.6145 75.7961C19.2369 75.4914 19.1791 74.9372 19.4794 74.5577C22.4694 70.8173 25.0267 64.0985 25.0542 64.032C25.2251 63.5776 25.7294 63.3504 26.1841 63.5222C26.636 63.6939 26.862 64.2037 26.6911 64.6581C26.5837 64.9435 24.0071 71.7067 20.8463 75.6631C20.6727 75.8792 20.4191 75.9928 20.1628 75.9928V75.9901Z" fill="#6D6D6D"/>
<path d="M50.2659 75.9901C50.0097 75.9901 49.7561 75.8765 49.5825 75.6604C46.4217 71.7039 43.8451 64.9435 43.7377 64.6554C43.5668 64.201 43.7928 63.694 44.2447 63.5194C44.6967 63.3476 45.2037 63.5748 45.3746 64.0292C45.3994 64.0985 47.9622 70.8201 50.9494 74.5549C51.2525 74.9345 51.1919 75.4886 50.8143 75.7934C50.6517 75.9236 50.4588 75.9873 50.2659 75.9873V75.9901Z" fill="#6D6D6D"/>
<path d="M20.1655 60.6767C19.9368 60.6767 19.7108 60.588 19.54 60.4107C19.201 60.0616 19.2093 59.5047 19.5538 59.1667C22.3508 56.421 24.6518 51.8771 24.6739 51.83C24.8916 51.3978 25.4179 51.2233 25.8506 51.4421C26.2832 51.661 26.4568 52.1902 26.2391 52.6252C26.1399 52.8219 23.7865 57.4738 20.7801 60.4274C20.6092 60.5964 20.3887 60.6795 20.1683 60.6795L20.1655 60.6767Z" fill="#6D6D6D"/>
<path d="M50.2634 60.6767C50.0429 60.6767 49.8225 60.5936 49.6516 60.4246C46.6451 57.4711 44.289 52.8192 44.1925 52.6225C43.9748 52.1875 44.1484 51.6583 44.5811 51.4394C45.0137 51.2205 45.5401 51.3951 45.7578 51.8273C45.7798 51.8744 48.0836 56.4182 50.8779 59.164C51.2251 59.5047 51.2306 60.0616 50.8917 60.408C50.7208 60.5853 50.4921 60.674 50.2661 60.674L50.2634 60.6767Z" fill="#6D6D6D"/>
<path d="M19.5427 50.5195C19.3526 50.5195 19.1597 50.4558 18.9998 50.3284C18.6223 50.0264 18.5562 49.4722 18.8593 49.0927C23.1196 43.6899 24.5967 38.2539 24.6105 38.1985C24.7345 37.7302 25.214 37.4504 25.6824 37.5751C26.1481 37.6998 26.4265 38.1818 26.3025 38.6529C26.2391 38.8884 24.7152 44.5017 20.2289 50.1871C20.0553 50.4059 19.799 50.5195 19.5427 50.5195Z" fill="#6D6D6D"/>
<path d="M50.8859 50.5195C50.6297 50.5195 50.3734 50.4059 50.1998 50.1871C45.7135 44.5017 44.1896 38.8884 44.1262 38.6529C44.0022 38.1846 44.2805 37.6998 44.7462 37.5751C45.2119 37.4504 45.6942 37.7302 45.8182 38.1985C45.8402 38.2788 47.3311 43.7204 51.5694 49.0927C51.8697 49.4722 51.8064 50.0264 51.4288 50.3284C51.269 50.4558 51.0761 50.5195 50.8859 50.5195Z" fill="#6D6D6D"/>
<path d="M78.8843 50.7799C76.4289 50.7799 74.1196 49.8185 72.3835 48.073L56.1772 31.7788C54.4411 30.0333 53.4849 27.7115 53.4849 25.2429C53.4849 22.7742 54.4411 20.4524 56.1772 18.7069C57.9133 16.9614 60.2226 16 62.6779 16C65.1333 16 67.4425 16.9614 69.1786 18.7069L85.3822 35.0011C88.9674 38.6057 88.9674 44.4684 85.3822 48.073C83.6461 49.8185 81.3368 50.7799 78.8815 50.7799H78.8843ZM62.6807 17.7594C60.6938 17.7594 58.8227 18.5379 57.4173 19.9509C54.5155 22.8684 54.5155 27.6146 57.4173 30.532L73.6236 46.8262C75.029 48.2393 76.9001 49.0178 78.887 49.0178C80.8739 49.0178 82.745 48.2393 84.1504 46.8262C87.0522 43.9087 87.0522 39.1626 84.1504 36.2423L67.9441 19.9482C66.5387 18.5351 64.6703 17.7566 62.6807 17.7566V17.7594Z" fill="#6D6D6D"/>
<path d="M81.7613 45.3079C81.5381 45.3079 81.3149 45.222 81.1412 45.0502C80.7995 44.7067 80.7995 44.1498 81.1412 43.8062C82.3841 42.5567 82.3841 40.5202 81.1412 39.2707L72.9926 31.0779C72.6509 30.7343 72.6509 30.1774 72.9926 29.8338C73.3343 29.4903 73.8882 29.4903 74.2327 29.8338L82.3786 38.0266C84.3048 39.9633 84.3048 43.1163 82.3786 45.053C82.2077 45.2248 81.9845 45.3107 81.7585 45.3107L81.7613 45.3079Z" fill="#6D6D6D"/>
<path d="M59.8036 29.0137C59.5804 29.0137 59.3572 28.9278 59.1836 28.756C58.2494 27.8168 57.7368 26.57 57.7368 25.2429C57.7368 23.9157 58.2494 22.6689 59.1836 21.7297C60.1177 20.7904 61.3578 20.2751 62.6778 20.2751C63.1601 20.2751 63.5541 20.6685 63.5541 21.1562C63.5541 21.6438 63.1601 22.0372 62.6778 22.0372C61.8263 22.0372 61.0244 22.3725 60.4236 22.9765C59.8201 23.5805 59.4894 24.3867 59.4894 25.2456C59.4894 26.1045 59.8201 26.908 60.4236 27.512C60.7653 27.8556 60.7653 28.4125 60.4236 28.756C60.2528 28.9278 60.0296 29.0137 59.8036 29.0137Z" fill="#6D6D6D"/>
<path d="M95.0495 66.786C94.6471 66.786 94.2834 66.5034 94.1952 66.0933C94.1814 66.0296 92.7236 59.5851 87.6779 57.557C81.9268 55.2435 78.9175 50.5444 78.7908 50.345C78.5317 49.9349 78.6557 49.3919 79.0636 49.1314C79.4714 48.871 80.0115 48.9929 80.2706 49.4029C80.2981 49.4473 83.1172 53.8277 88.3283 55.9223C94.2475 58.3023 95.8404 65.4201 95.9065 65.7221C96.0084 66.1986 95.7081 66.6668 95.2341 66.7694C95.1735 66.7832 95.1101 66.7887 95.0495 66.7887V66.786Z" fill="#6D6D6D"/>
<path d="M103.126 58.6707C103.066 58.6707 103.002 58.6652 102.942 58.6513C102.641 58.5848 95.5618 56.9834 93.1946 51.0321C91.1113 45.7955 86.7518 42.9584 86.7077 42.9307C86.3026 42.6702 86.1813 42.1272 86.4376 41.7171C86.6967 41.3071 87.2368 41.1852 87.6446 41.4456C87.843 41.5703 92.5167 44.5958 94.8177 50.381C96.8349 55.454 103.245 56.9197 103.308 56.9335C103.779 57.0361 104.08 57.5071 103.978 57.9808C103.887 58.3937 103.526 58.6735 103.123 58.6735L103.126 58.6707Z" fill="#6D6D6D"/>
<path d="M77.9746 59.743C77.5337 59.743 77.1534 59.4077 77.1038 58.9589C76.6657 54.9165 74.191 49.3309 74.1635 49.2755C73.9651 48.8322 74.1635 48.3113 74.6016 48.1118C75.0426 47.9123 75.5606 48.1118 75.759 48.5551C75.8665 48.7934 78.3742 54.4483 78.8427 58.7677C78.895 59.2526 78.5478 59.6848 78.0656 59.7374C78.0353 59.7402 78.0022 59.743 77.9719 59.743H77.9746Z" fill="#6D6D6D"/>
<path d="M96.1185 41.5038C96.0882 41.5038 96.0552 41.5038 96.0221 41.4983C91.7259 41.0272 86.1015 38.506 85.8645 38.3979C85.4209 38.1984 85.2252 37.6775 85.4236 37.2342C85.622 36.7909 86.1401 36.5914 86.581 36.7909C86.6389 36.8159 92.1944 39.3067 96.2122 39.7472C96.6945 39.7999 97.0417 40.2348 96.9893 40.7169C96.9397 41.1658 96.5622 41.501 96.1213 41.501L96.1185 41.5038Z" fill="#6D6D6D"/>
<path d="M68.7958 50.5112C68.7958 50.5112 68.7902 50.5112 68.7875 50.5112C68.3025 50.5056 67.9167 50.1066 67.9222 49.6218C67.9608 46.2887 66.6325 42.1798 66.616 42.141C66.4644 41.6783 66.7152 41.1824 67.1754 41.03C67.6328 40.8776 68.1289 41.1297 68.2804 41.5897C68.3383 41.7698 69.7162 46.0199 69.6721 49.6439C69.6666 50.126 69.2752 50.5139 68.7958 50.5139V50.5112Z" fill="#6D6D6D"/>
<path d="M86.7821 32.272C83.2134 32.272 79.1129 30.931 78.9366 30.8701C78.4764 30.7177 78.2283 30.2217 78.3771 29.759C78.5287 29.2963 79.0247 29.047 79.4822 29.1966C79.5235 29.2104 83.6157 30.5431 86.9254 30.5099H86.9336C87.4131 30.5099 87.8044 30.8978 87.8099 31.3799C87.8155 31.8647 87.4297 32.2637 86.9446 32.2692C86.8895 32.2692 86.8344 32.2692 86.7793 32.2692L86.7821 32.272Z" fill="#6D6D6D"/>
<path d="M62.3308 44.7676C61.8926 44.7676 61.5151 44.4379 61.4628 43.9891C60.7986 38.1984 58.4397 34.0286 58.4177 33.9871C58.1752 33.5659 58.3212 33.0284 58.7374 32.7846C59.1562 32.5408 59.6908 32.6848 59.9333 33.106C60.038 33.2861 62.4961 37.6166 63.2044 43.7868C63.2595 44.2689 62.915 44.7067 62.4355 44.7621C62.3997 44.7649 62.3666 44.7676 62.3336 44.7676H62.3308Z" fill="#6D6D6D"/>
<path d="M81.2239 25.7749C81.1881 25.7749 81.155 25.7749 81.122 25.7693C74.985 25.0573 70.6778 22.5859 70.4987 22.4806C70.0798 22.2368 69.9365 21.6992 70.179 21.2781C70.4215 20.857 70.9561 20.7129 71.375 20.9567C71.4164 20.9816 75.5637 23.3533 81.3231 24.021C81.8026 24.0765 82.1471 24.5142 82.092 24.9963C82.0424 25.4452 81.6621 25.7749 81.2239 25.7749Z" fill="#6D6D6D"/>
<path d="M69.151 93.8718C67.1421 93.8718 65.2517 93.085 63.8325 91.6553C62.4106 90.2257 61.6279 88.3278 61.6279 86.3052C61.6279 84.2826 62.4106 82.3847 63.8325 80.9551L76.7871 67.9303C78.209 66.5006 80.0967 65.7137 82.1084 65.7137C84.12 65.7137 86.0077 66.5006 87.4297 67.9303C88.8488 69.3599 89.6315 71.2578 89.6315 73.2804C89.6315 75.303 88.8488 77.2009 87.4297 78.6305L74.4751 91.6553C73.0531 93.085 71.1654 93.8718 69.1538 93.8718H69.151ZM82.1056 67.4759C80.5624 67.4759 79.1129 68.0799 78.0244 69.1771L65.0698 82.2019C63.9786 83.299 63.3778 84.7564 63.3778 86.308C63.3778 87.8595 63.9786 89.3169 65.0698 90.4113C66.1611 91.5085 67.6106 92.1125 69.151 92.1125C70.6915 92.1125 72.1437 91.5085 73.235 90.4113L86.1896 77.3865C87.2808 76.2893 87.8816 74.8319 87.8816 73.2832C87.8816 71.7344 87.2808 70.2742 86.1896 69.1771C85.0983 68.0799 83.6488 67.4759 82.1084 67.4759H82.1056Z" fill="#C10000"/>
<path d="M70.846 88.8902C70.6228 88.8902 70.3969 88.8043 70.226 88.6325C69.8843 88.289 69.8843 87.7321 70.226 87.3885L71.4055 86.2027C71.7499 85.8591 72.3038 85.8591 72.6455 86.2027C72.9872 86.5462 72.9872 87.1031 72.6455 87.4467L71.4661 88.6325C71.2952 88.8043 71.072 88.8902 70.846 88.8902Z" fill="#C10000"/>
<path d="M74.4696 85.244C74.2464 85.244 74.0204 85.1582 73.8495 84.9864C73.5078 84.6428 73.5078 84.0859 73.8495 83.7423L78.0217 79.5476C78.3634 79.204 78.9173 79.204 79.2618 79.5476C79.6035 79.8911 79.6035 80.448 79.2618 80.7916L75.0869 84.9864C74.916 85.1582 74.6928 85.244 74.4668 85.244H74.4696Z" fill="#C10000"/>
<path d="M78.6419 74.2335C78.4187 74.2335 78.1955 74.1476 78.0219 73.9758C77.6802 73.6323 77.6802 73.0754 78.0219 72.7318L79.7883 70.9558C80.4084 70.3352 81.2296 69.9916 82.1031 69.9916C82.9767 69.9916 83.7979 70.3324 84.4179 70.9558C84.7596 71.2994 84.7596 71.8563 84.4179 72.1998C84.0734 72.5434 83.5223 72.5434 83.1778 72.1998C82.8885 71.9089 82.5082 71.751 82.1031 71.751C81.698 71.751 81.315 71.9089 81.0284 72.1998L79.262 73.9758C79.0911 74.1476 78.8679 74.2335 78.6419 74.2335Z" fill="#C10000"/>
<path d="M49.7731 100.178C49.3707 100.178 49.007 99.8952 48.9188 99.4824C48.8168 99.0086 49.1172 98.5404 49.5884 98.4351C49.638 98.424 54.6727 97.2687 56.249 93.3039C58.1091 88.6298 61.8927 86.1805 62.0525 86.078C62.4631 85.8176 63.0005 85.9395 63.2595 86.3495C63.5186 86.7596 63.3973 87.3026 62.9895 87.5631C62.9371 87.5991 59.5145 89.8378 57.8749 93.955C55.9459 98.798 50.2002 100.097 49.9577 100.153C49.8943 100.167 49.8337 100.172 49.7731 100.172V100.178Z" fill="#C10000"/>
<path d="M56.2299 106.667C56.1693 106.667 56.1059 106.658 56.0425 106.647C55.5713 106.545 55.2709 106.077 55.3729 105.603C55.4253 105.356 56.7177 99.5794 61.5374 97.6427C65.6682 95.9803 67.8728 92.5336 67.8949 92.5004C68.1539 92.0903 68.6968 91.9684 69.1046 92.2261C69.5125 92.4865 69.6337 93.0296 69.3747 93.4396C69.2727 93.6003 66.8394 97.4044 62.1878 99.2746C58.2444 100.859 57.0952 105.921 57.0842 105.974C56.9933 106.384 56.6323 106.667 56.2299 106.667Z" fill="#C10000"/>
<path d="M55.3755 86.4548C54.9346 86.4548 54.5543 86.1196 54.5047 85.6707C54.4524 85.1886 54.7996 84.7536 55.2818 84.701C58.4647 84.3519 62.8821 82.3709 62.9262 82.3515C63.3671 82.152 63.8852 82.3515 64.0836 82.7948C64.282 83.2381 64.0836 83.759 63.6454 83.9585C63.4525 84.0443 58.9332 86.0725 55.472 86.452C55.4417 86.4548 55.4086 86.4576 55.3783 86.4576L55.3755 86.4548Z" fill="#C10000"/>
<path d="M69.8788 101.037C69.8485 101.037 69.8154 101.037 69.7823 101.031C69.3028 100.979 68.9556 100.544 69.0052 100.061C69.3827 96.5815 71.3999 92.0349 71.4853 91.8437C71.6838 91.4004 72.2018 91.2037 72.6427 91.4004C73.0837 91.5999 73.2821 92.1208 73.0837 92.5641C73.0644 92.6084 71.094 97.0497 70.7468 100.25C70.6972 100.701 70.3197 101.034 69.8788 101.034V101.037Z" fill="#C10000"/>
<path d="M62.8378 79.0766C62.7937 79.0766 62.7468 79.0766 62.7028 79.0766C62.2177 79.071 61.8319 78.6721 61.8375 78.1872C61.843 77.7051 62.2343 77.3172 62.7138 77.3172H62.7248C62.7634 77.3172 62.802 77.3172 62.8405 77.3172C65.4419 77.3172 68.5862 76.2865 68.6193 76.2755C69.0767 76.1231 69.5727 76.3752 69.7243 76.8379C69.8731 77.3006 69.6251 77.7965 69.1649 77.9489C69.0244 77.996 65.7175 79.0766 62.8405 79.0766H62.8378Z" fill="#C10000"/>
<path d="M77.2146 93.6585C76.7351 93.6585 76.3465 93.2706 76.3383 92.7885C76.3024 89.8627 77.413 86.4382 77.4598 86.2941C77.6114 85.8314 78.1074 85.582 78.5649 85.7344C79.0223 85.8868 79.2731 86.3828 79.1215 86.8455C79.1133 86.8787 78.0578 90.1398 78.0881 92.7691C78.0936 93.2567 77.7051 93.6529 77.2228 93.6612H77.2118L77.2146 93.6585Z" fill="#C10000"/>
<path d="M67.2801 73.8844C66.8419 73.8844 66.4644 73.5547 66.412 73.1031C66.3569 72.621 66.7014 72.1832 67.1809 72.1278C71.7443 71.5986 75.0319 69.7201 75.065 69.7035C75.4838 69.4597 76.0184 69.6065 76.261 70.0249C76.5035 70.446 76.3602 70.9835 75.9413 71.2273C75.7952 71.3132 72.323 73.3053 67.3821 73.8788C67.349 73.8816 67.3132 73.8844 67.2801 73.8844Z" fill="#C10000"/>
<path d="M82.384 89.0647C82.3509 89.0647 82.3151 89.0647 82.282 89.0592C81.7998 89.0038 81.458 88.566 81.5132 88.0839C82.0836 83.1134 84.0649 79.6224 84.1504 79.4783C84.3929 79.0572 84.9275 78.9131 85.3463 79.1569C85.7625 79.4007 85.9058 79.9382 85.666 80.3594C85.6467 80.3926 83.7783 83.698 83.252 88.2862C83.1996 88.735 82.8221 89.0675 82.384 89.0675V89.0647Z" fill="#C10000"/>
</g>
<defs>
<clipPath id="clip0_381_489">
<rect width="85.3333" height="90.6667" fill="white" transform="translate(18.6665 16)"/>
</clipPath>
</defs>
</svg>
