<svg width="120" height="120" viewBox="0 0 120 120" fill="none" xmlns="http://www.w3.org/2000/svg">
<circle cx="60" cy="60" r="60" fill="white"/>
<path d="M39.2495 65.5054H66.2249H67.8988" stroke="#6D6D6D" stroke-width="2" stroke-linecap="round" stroke-linejoin="round"/>
<path d="M80.5427 60.1789C81.5525 58.5135 82.1335 56.5729 82.1335 54.4946C82.1335 48.4112 77.1811 43.4839 71.0667 43.4839H37.8662" stroke="#6D6D6D" stroke-width="2" stroke-linecap="round" stroke-linejoin="round"/>
<path d="M61.383 54.4946H29.5659C26.5086 54.4946 23.7419 55.7333 21.7361 57.7153C19.744 59.711 18.499 62.4637 18.499 65.5054C18.499 71.5888 23.4514 76.5161 29.5659 76.5161H60.0412" stroke="#6D6D6D" stroke-width="2" stroke-linecap="round" stroke-linejoin="round"/>
<path d="M59.9994 33.8495H34.4074C28.6783 33.8495 24.0322 38.472 24.0322 44.172C24.0322 49.874 28.6783 54.4946 34.4074 54.4946H68.2996" stroke="#6D6D6D" stroke-width="2" stroke-linecap="round" stroke-linejoin="round"/>
<path d="M40.6328 17.3333V24.2151C40.6328 29.5356 44.9686 33.8495 50.3163 33.8495H59.9998" stroke="#6D6D6D" stroke-width="2" stroke-linecap="round" stroke-linejoin="round"/>
<path d="M50.3161 17.3333V20.086C50.3161 22.3668 52.1737 24.2151 54.4661 24.2151H61.3829C66.7306 24.2151 71.0664 28.5289 71.0664 33.8495C71.0664 39.17 66.7306 43.4839 61.3829 43.4839H46.166" stroke="#6D6D6D" stroke-width="2" stroke-linecap="round" stroke-linejoin="round"/>
<path d="M32.3325 65.5054H66.2247C66.7365 65.5054 67.2484 65.5467 67.7464 65.6293" stroke="#6D6D6D" stroke-width="2" stroke-linecap="round" stroke-linejoin="round"/>
<path d="M58.6579 86.1505H50.3163H40.6328" stroke="#6D6D6D" stroke-width="2" stroke-linecap="round" stroke-linejoin="round"/>
<path d="M59.9998 102.667V95.7849C59.9998 90.4644 55.6639 86.1505 50.3163 86.1505H40.6328" stroke="#6D6D6D" stroke-width="2" stroke-linecap="round" stroke-linejoin="round"/>
<path d="M50.3162 102.667V99.914C50.3162 97.6332 48.4586 95.7849 46.1662 95.7849H39.2494C33.9017 95.7849 29.5659 91.4711 29.5659 86.1505C29.5659 80.83 33.9017 76.5161 39.2494 76.5161H48.9329" stroke="#6D6D6D" stroke-width="2" stroke-linecap="round" stroke-linejoin="round"/>
<path d="M83.333 102.667C93.2741 102.667 101.333 94.6078 101.333 84.6667C101.333 74.7255 93.2741 66.6667 83.333 66.6667C73.3919 66.6667 65.333 74.7255 65.333 84.6667C65.333 94.6078 73.3919 102.667 83.333 102.667Z" stroke="#085EAC" stroke-width="2" stroke-linecap="round" stroke-linejoin="round"/>
<path d="M76 84.6667L80.8896 89.3333L90.6667 80" stroke="#085EAC" stroke-width="2" stroke-linecap="round" stroke-linejoin="round"/>
</svg>
