<svg width="120" height="120" viewBox="0 0 120 120" fill="none" xmlns="http://www.w3.org/2000/svg">
<circle cx="60" cy="60" r="60" fill="white"/>
<path d="M39.8291 44.6843C40.75 43.6376 41.7297 42.6563 43.036 42.6563C53.8126 43.6376 65.5689 44.946 75.6924 39.7124C77.6517 38.7311 80.2642 40.3666 80.2642 42.6563C79.9377 46.5815 79.2846 50.1795 79.9377 54.1047C80.5908 57.3757 82.2236 60.3196 82.8768 63.5906C83.2033 66.2074 82.8768 68.8241 81.4823 70.9895" stroke="#6D6D6D" stroke-width="2" stroke-miterlimit="22.93"/>
<path d="M60.4905 93.0785C64.9154 88.123 72.0998 88.4501 78.3045 89.7584C82.8764 91.0668 87.1218 89.1042 90.3874 86.1604C92.6733 83.8707 94.3062 80.9268 94.9593 77.6558C95.6124 74.3848 95.6124 71.4409 94.6327 68.17C93.3265 61.9551 91.3671 56.3944 90.0608 49.8525C89.0811 43.9647 90.3874 38.404 91.6937 32.8433C91.0405 29.8995 90.714 26.6285 87.7749 25.3201C85.4889 24.3388 82.5499 24.3388 80.2639 25.3201C74.7123 27.9369 69.8139 30.8807 63.9357 32.8433C60.0169 34.1517 56.0982 34.8059 52.1794 34.8059C48.5872 34.4788 44.995 34.1517 41.7294 33.1704C38.4637 31.862 34.2184 30.8807 31.6059 34.1517C29.6465 37.4227 30.6262 41.0208 31.2728 44.282" stroke="#6D6D6D" stroke-width="2" stroke-miterlimit="22.93"/>
<path d="M24.7023 55.4981C24.4084 55.4981 24.1145 55.3738 23.912 55.1318C23.5397 54.6935 23.592 54.0393 24.0329 53.6664C29.1142 49.3389 35.5834 46.9609 42.2453 46.9609C45.0244 46.9609 47.7741 47.3665 50.4127 48.1679C50.9581 48.3347 51.2683 48.9169 51.1017 49.4632C50.9352 50.0127 50.3539 50.3234 49.8085 50.1566C47.3658 49.4141 44.8187 49.038 42.2453 49.038C36.0765 49.038 30.0841 51.2459 25.375 55.2528C25.1791 55.4164 24.9407 55.4981 24.7023 55.4981Z" fill="#085EAC"/>
<path d="M42.2423 97.4583C29.9765 97.4583 20 87.4655 20 75.1797C20 62.8939 29.9765 52.901 42.2423 52.901C54.508 52.901 64.4878 62.8939 64.4878 75.1797C64.4878 87.4655 54.508 97.4616 42.2423 97.4616V97.4583ZM42.2423 54.9781C31.1228 54.9781 22.0737 64.042 22.0737 75.1797C22.0737 86.3174 31.1195 95.3813 42.2423 95.3813C53.365 95.3813 62.4109 86.3174 62.4109 75.1797C62.4109 64.042 53.3618 54.9781 42.2423 54.9781Z" fill="#085EAC"/>
<path d="M39.6263 86.808H31.2434C29.7053 86.808 28.4186 85.5879 28.3729 84.0898C28.35 83.4094 28.5721 82.7618 28.9934 82.2384C28.6048 81.7576 28.3696 81.1427 28.3696 80.4754C28.3696 79.8081 28.6015 79.1931 28.9934 78.7123C28.6015 78.2315 28.3696 77.6165 28.3696 76.9493C28.3696 76.282 28.6015 75.6703 28.9934 75.1895C28.5688 74.6694 28.35 74.0185 28.3729 73.3381C28.4186 71.84 29.7053 70.6199 31.2434 70.6199H34.5025C35.9067 70.6199 37.0497 69.4751 37.0497 68.0685V67.3129C37.0497 64.1466 39.623 61.5691 42.7842 61.5691C43.3556 61.5691 43.8226 62.0368 43.8226 62.6093V68.2779C43.8226 70.0769 44.6717 71.8073 46.0923 72.9096L47.9733 74.3684C48.228 74.5647 48.3749 74.8689 48.3749 75.1895V82.245C48.3749 82.5655 48.2247 82.8697 47.9733 83.066L45.9192 84.659C44.1296 86.0459 41.8926 86.8113 39.6296 86.8113L39.6263 86.808ZM32.2068 82.2417C32.2068 82.8141 31.743 83.2819 31.1683 83.2819C30.9691 83.2819 30.7862 83.3571 30.649 83.501C30.5119 83.6417 30.4368 83.8314 30.4433 84.0309C30.4564 84.4104 30.8189 84.7309 31.2401 84.7309H39.623C41.4322 84.7309 43.2152 84.1192 44.6456 83.0104L46.2947 81.7314V75.6965L44.8187 74.5516C42.8952 73.0601 41.7457 70.7148 41.7457 68.2779V63.7999C40.2337 64.248 39.1266 65.6545 39.1266 67.3129V68.0685C39.1266 70.6232 37.0497 72.7002 34.5025 72.7002H31.2434C30.8221 72.7002 30.4596 73.0208 30.4466 73.4002C30.44 73.5998 30.5152 73.7862 30.6523 73.9269C30.7895 74.0675 30.9723 74.146 31.1715 74.146C31.743 74.146 32.21 74.6138 32.21 75.1862C32.21 75.7586 31.7463 76.2264 31.1715 76.2264C30.7731 76.2264 30.4466 76.5502 30.4466 76.9493C30.4466 77.3483 30.7699 77.6754 31.1715 77.6754C31.743 77.6754 32.21 78.1399 32.21 78.7156C32.21 79.2913 31.7463 79.7558 31.1715 79.7558C30.7731 79.7558 30.4466 80.0796 30.4466 80.4819C30.4466 80.8842 30.7699 81.2081 31.1715 81.2081C31.743 81.2081 32.21 81.6726 32.21 82.2482L32.2068 82.2417Z" fill="#085EAC"/>
<path d="M55.0759 84.9174H47.3363C46.7648 84.9174 46.2979 84.4529 46.2979 83.8772V72.3634C46.2979 71.7909 46.7616 71.3232 47.3363 71.3232H55.0759C55.6474 71.3232 56.1144 71.7877 56.1144 72.3634V83.8772C56.1144 84.4496 55.6474 84.9174 55.0759 84.9174ZM48.3748 82.8403H54.0374V73.4068H48.3748V82.8403Z" fill="#085EAC"/>
</svg>
