<svg width="120" height="120" viewBox="0 0 120 120" fill="none" xmlns="http://www.w3.org/2000/svg">
<circle cx="60" cy="60" r="60" fill="white"/>
<path d="M46.8527 42.5768C44.8688 43.4656 42.7541 44.9255 40.8119 46.848C38.8698 48.7705 37.3949 50.862 36.4971 52.8276" stroke="#6D6D6D" stroke-width="2" stroke-linecap="round" stroke-linejoin="round"/>
<path d="M36.5005 59.6615C38.4653 61.6064 42.761 60.64 46.8736 57.5837" stroke="#6D6D6D" stroke-width="2" stroke-linecap="round" stroke-linejoin="round"/>
<path d="M53.7563 42.5803C54.4886 43.3051 54.8181 44.3681 54.7693 45.6124" stroke="#6D6D6D" stroke-width="2" stroke-linecap="round" stroke-linejoin="round"/>
<path d="M36.4969 59.6598L25.5084 48.7825C20.6164 43.9401 20.5136 36.1899 25.2782 31.4717C30.0446 26.7553 37.8741 26.8571 42.7678 31.6995L53.7563 42.5768" stroke="#6D6D6D" stroke-width="2" stroke-linecap="round" stroke-linejoin="round"/>
<path d="M72.3511 42.5768C74.335 43.4656 76.4498 44.9255 78.3919 46.848C80.334 48.7705 81.8089 50.862 82.7068 52.8276" stroke="#6D6D6D" stroke-width="2" stroke-linecap="round" stroke-linejoin="round"/>
<path d="M73.1846 58.1877C77.0287 60.7607 80.8729 61.4735 82.7034 59.6615" stroke="#6D6D6D" stroke-width="2" stroke-linecap="round" stroke-linejoin="round"/>
<path d="M65.4475 42.5803C64.8373 43.1843 64.5078 43.9936 64.4346 44.948" stroke="#6D6D6D" stroke-width="2" stroke-linecap="round" stroke-linejoin="round"/>
<path d="M82.7067 59.6598L93.6953 48.7825C98.5889 43.9384 98.6918 36.1881 93.9254 31.4717C89.159 26.7553 81.3295 26.8571 76.4358 31.6995L65.4473 42.5768" stroke="#6D6D6D" stroke-width="2" stroke-linecap="round" stroke-linejoin="round"/>
<path d="M49.8392 53.3678C51.1871 53.3678 52.2799 52.2861 52.2799 50.9518C52.2799 49.6175 51.1871 48.5358 49.8392 48.5358C48.4912 48.5358 47.3984 49.6175 47.3984 50.9518C47.3984 52.2861 48.4912 53.3678 49.8392 53.3678Z" stroke="#085EAC" stroke-width="2" stroke-linecap="round" stroke-linejoin="round"/>
<path d="M71.8055 90.8161C73.1535 90.8161 74.2462 89.7344 74.2462 88.4001C74.2462 87.0658 73.1535 85.9841 71.8055 85.9841C70.4575 85.9841 69.3647 87.0658 69.3647 88.4001C69.3647 89.7344 70.4575 90.8161 71.8055 90.8161Z" stroke="#085EAC" stroke-width="2" stroke-linecap="round" stroke-linejoin="round"/>
<path d="M55.941 95.6481C58.637 95.6481 60.8225 93.4848 60.8225 90.8161C60.8225 88.1474 58.637 85.9841 55.941 85.9841C53.2451 85.9841 51.0596 88.1474 51.0596 90.8161C51.0596 93.4848 53.2451 95.6481 55.941 95.6481Z" stroke="#085EAC" stroke-width="2" stroke-linecap="round" stroke-linejoin="round"/>
<path d="M75.4664 79.944C78.1624 79.944 80.3479 77.7806 80.3479 75.1119C80.3479 72.4433 78.1624 70.2799 75.4664 70.2799C72.7705 70.2799 70.585 72.4433 70.585 75.1119C70.585 77.7806 72.7705 79.944 75.4664 79.944Z" stroke="#085EAC" stroke-width="2" stroke-linecap="round" stroke-linejoin="round"/>
<path d="M69.1574 62.0775C69.2916 62.3674 69.3649 62.6936 69.3649 63.0318C69.3649 64.3606 68.2665 65.4478 66.9241 65.4478C65.5817 65.4478 64.4834 64.3606 64.4834 63.0318V62.9956" stroke="#085EAC" stroke-width="2" stroke-linecap="round" stroke-linejoin="round"/>
<path d="M43.7371 82.36C45.0851 82.36 46.1779 81.2783 46.1779 79.944C46.1779 78.6097 45.0851 77.528 43.7371 77.528C42.3891 77.528 41.2964 78.6097 41.2964 79.944C41.2964 81.2783 42.3891 82.36 43.7371 82.36Z" stroke="#085EAC" stroke-width="2" stroke-linecap="round" stroke-linejoin="round"/>
<path d="M55.2666 70.3666C56.8379 68.198 56.3358 65.1792 54.1451 63.6238C51.9544 62.0684 48.9046 62.5655 47.3334 64.734C45.7621 66.9025 46.2642 69.9214 48.4549 71.4768C50.6456 73.0321 53.6953 72.5351 55.2666 70.3666Z" stroke="#085EAC" stroke-width="2" stroke-linecap="round" stroke-linejoin="round"/>
<path d="M60.3219 71.2325C62.1159 71.4672 63.4896 72.9807 63.4844 74.829C63.4792 76.8343 61.8387 78.4495 59.8129 78.4426C58.1532 78.4375 56.7532 77.3468 56.3174 75.8368" stroke="#085EAC" stroke-width="2" stroke-linecap="round" stroke-linejoin="round"/>
<path d="M65.0935 58.1998C67.4525 58.1998 69.3648 56.3068 69.3648 53.9717C69.3648 51.6367 67.4525 49.7437 65.0935 49.7437C62.7346 49.7437 60.8223 51.6367 60.8223 53.9717C60.8223 56.3068 62.7346 58.1998 65.0935 58.1998Z" stroke="#085EAC" stroke-width="2" stroke-linecap="round" stroke-linejoin="round"/>
</svg>
