<svg width="120" height="120" viewBox="0 0 120 120" fill="none" xmlns="http://www.w3.org/2000/svg">
<circle cx="60" cy="60" r="60" fill="white"/>
<path d="M25.2247 73.3057C25.8549 72.9334 26.4708 72.5323 27.0437 72.074C28.9916 70.5415 30.7962 68.7512 31.9134 66.5455C32.2571 65.8723 32.7584 65.2708 33.3886 64.7695C36.0096 62.707 39.934 63.4232 41.5954 66.5168C42.6696 68.479 42.3545 71.0285 40.8507 72.6899C40.1202 73.5206 39.2179 74.0505 38.2583 74.3083C36.0526 74.9242 33.9615 75.8981 32.1569 77.3161C30.9681 78.247 29.8509 79.2783 28.8913 80.4241" stroke="#085EAC" stroke-width="2" stroke-linecap="round" stroke-linejoin="round"/>
<path d="M77.1155 64.7694C76.9437 64.6548 76.7861 64.5402 76.6286 64.4113C75.2536 63.2512 73.7068 62.3059 71.988 61.7617C70.1404 61.1744 68.1782 60.7734 66.2447 61.0169C65.6575 61.0885 65.0416 61.0455 64.44 60.845C61.9336 60.043 60.6732 57.1641 61.9622 54.7293C62.7786 53.1681 64.5689 52.2515 66.3163 52.495C67.1757 52.6095 67.9204 52.9676 68.5077 53.4689C69.8826 54.6433 71.4295 55.5743 73.1482 56.1186C75.0101 56.7201 76.958 57.1068 78.8915 56.8633C79.4788 56.7917 80.0946 56.8347 80.6962 57.0352C81.5412 57.3073 82.2287 57.8086 82.73 58.4388" stroke="#085EAC" stroke-width="2" stroke-linecap="round" stroke-linejoin="round"/>
<path d="M47.0913 35.4613C48.6382 34.5365 50.3651 33.984 52.1472 33.7262C52.9145 33.6137 53.6695 33.2884 54.3283 32.7196C55.6624 31.5676 56.1596 29.6156 55.5253 27.9706C54.537 25.4007 51.5457 24.4472 49.2929 25.7956C48.7487 26.1209 48.3067 26.5486 47.9732 27.0396C46.8765 28.6478 45.2908 29.8612 43.6212 30.8617C42.0743 31.7865 40.3474 32.339 38.5653 32.5968C37.798 32.7093 37.043 33.0346 36.3842 33.6035C35.0501 34.7554 34.5529 36.7074 35.1872 38.3524C36.1755 40.9223 39.1668 41.8758 41.4196 40.5274C41.9638 40.2021 42.4058 39.7744 42.7393 39.2834C43.836 37.6752 45.4217 36.4618 47.0913 35.4613Z" stroke="#085EAC" stroke-width="2" stroke-linecap="round" stroke-linejoin="round"/>
<path d="M52.7526 81.7274C52.4088 81.8277 52.0508 81.8993 51.6927 81.9566C50.9336 82.0998 50.1745 82.1571 49.4154 82.1571C48.3985 82.1571 47.3673 82.0425 46.3504 81.8277C45.5913 81.6558 44.7749 81.6988 43.9585 81.9995C42.2971 82.6154 41.1513 84.2768 41.1799 86.0385C41.2086 88.7884 43.672 90.722 46.2644 90.2493C46.8803 90.1348 47.4389 89.8913 47.9258 89.5475C49.5157 88.4161 51.4206 87.8431 53.3398 87.4851C54.815 87.213 56.3046 87.2273 57.7798 87.4564" stroke="#085EAC" stroke-width="2" stroke-linecap="round" stroke-linejoin="round"/>
<path d="M76.2133 41.6241C76.5857 41.9249 77.0011 42.1397 77.4307 42.283C79.2784 42.9132 80.8682 44.1163 82.2718 45.4626C83.5751 46.7087 84.5634 48.2268 85.2795 49.8883C85.5946 50.5901 86.1102 51.2346 86.8264 51.7216C88.2873 52.6955 90.3067 52.6668 91.7247 51.6213C93.9447 49.9885 94.0736 46.8519 92.1687 45.0329C91.7104 44.5889 91.1804 44.2881 90.6218 44.0876C88.7885 43.4574 87.1987 42.2543 85.7808 40.908C84.5061 39.6906 83.5465 38.2297 82.8304 36.6112" stroke="#085EAC" stroke-width="2" stroke-linecap="round" stroke-linejoin="round"/>
<path d="M38.9949 56.8225C41.1985 57.4568 43.2098 58.5842 44.9981 60.0185C45.7694 60.6364 46.727 61.0559 47.8258 61.1746C50.056 61.416 52.3005 60.1822 53.2806 58.1668C54.8131 55.0159 53.1047 51.4066 49.8943 50.4817C49.1189 50.2587 48.3373 50.2178 47.5925 50.3344C45.1454 50.7109 42.6389 50.2894 40.2593 49.604C38.0557 48.9697 36.0444 47.8423 34.2561 46.408C33.4848 45.7901 32.5272 45.3706 31.4284 45.2519C29.1982 45.0105 26.9537 46.2443 25.9736 48.2597C24.4411 51.4107 26.1496 55.0199 29.3599 55.9448C30.1353 56.1678 30.9169 56.2087 31.6617 56.0921C34.1088 55.7156 36.6153 56.1371 38.9949 56.8225Z" stroke="#085EAC" stroke-width="2" stroke-linecap="round" stroke-linejoin="round"/>
<path d="M72.4465 24.9097C71.5728 27.187 70.0117 29.1349 68.293 30.8536C66.6602 32.472 64.698 33.6894 62.5783 34.5488C61.6616 34.9212 60.8309 35.5657 60.2007 36.468C58.9117 38.3013 58.8974 40.865 60.1864 42.6983C62.1915 45.5629 66.1732 45.8207 68.5364 43.4718C69.1094 42.8989 69.5247 42.2257 69.7968 41.5239C70.6562 39.2036 72.2317 37.2128 73.9934 35.4654C75.6118 33.847 77.574 32.6296 79.6937 31.7702C80.5674 31.4121 81.3695 30.8106 81.9854 29.9656" stroke="#085EAC" stroke-width="2" stroke-linecap="round" stroke-linejoin="round"/>
<path d="M83.8758 88.5592C83.7899 88.373 83.7326 88.1868 83.6896 88.0006C83.4175 86.9264 83.4748 85.8952 83.7899 84.9499C84.5203 82.7729 84.8784 80.4956 84.7209 78.2183C84.5347 75.7405 84.062 73.2484 82.8733 71.0857C82.5009 70.4268 82.2717 69.6677 82.2144 68.8657C81.9709 65.5428 84.7638 62.6926 88.2585 63.0364C90.4929 63.2512 92.4121 64.9413 92.9563 67.1183C93.2285 68.1925 93.1712 69.238 92.8561 70.169C92.2402 72.0023 91.8822 73.9215 91.8822 75.8408C91.8822 76.1845 91.8965 76.5426 91.9251 76.9006C91.9681 77.5308 92.0397 78.161 92.1256 78.7912" stroke="#085EAC" stroke-width="2" stroke-linecap="round" stroke-linejoin="round"/>
<path d="M62.4552 84.0293C63.6092 86.0099 64.2844 88.2156 64.5872 90.4888C64.7181 91.4668 65.1192 92.4326 65.8332 93.2776C67.2778 94.9922 69.7535 95.6531 71.8549 94.8735C75.1388 93.6541 76.3992 89.8647 74.7173 86.9777C74.3122 86.28 73.7741 85.7112 73.1562 85.2794C71.1265 83.8595 69.6062 81.8236 68.3602 79.6855C67.2062 77.7048 66.531 75.4992 66.2281 73.226C66.0972 72.2479 65.6962 71.2822 64.9821 70.4372C63.5375 68.7225 61.0618 68.0617 58.9605 68.8412C55.6765 70.0607 54.4161 73.85 56.098 76.737C56.5031 77.4348 57.0412 78.0015 57.6591 78.4353C59.6889 79.8553 61.2091 81.8911 62.4552 84.0293Z" stroke="#085EAC" stroke-width="2" stroke-linecap="round" stroke-linejoin="round"/>
<path d="M60 17.0322C36.2696 17.0322 17.0323 36.2695 17.0323 60C17.0323 83.7304 36.2696 102.968 60 102.968C83.7305 102.968 102.968 83.7304 102.968 60C102.968 36.2695 83.7305 17.0322 60 17.0322Z" stroke="#6D6D6D" stroke-width="2" stroke-linecap="round" stroke-linejoin="round"/>
</svg>
