<svg width="390" height="1346" viewBox="0 0 390 1346" fill="none" xmlns="http://www.w3.org/2000/svg">
<path d="M314.453 1277.61C326.978 1272.08 342.635 1265.81 368.394 1271.1C384.239 1274.35 388.655 1279.36 389.707 1282.75V1286.33C389.707 1286.33 390.366 1284.86 389.707 1282.75L389.707 0H0V1271.1C0 1271.1 9.3942 1297.37 43.0315 1271.1C76.6687 1244.82 87.5781 1330.33 112.427 1343.23C137.276 1356.14 151.754 1320.44 168.792 1307.47C184.449 1295.55 193.945 1289.61 229.905 1303.05C265.866 1316.48 287.078 1289.7 314.453 1277.61Z" fill="url(#paint0_linear_403_68)"/>
<defs>
<linearGradient id="paint0_linear_403_68" x1="6.10998e-06" y1="0.418661" x2="338.298" y2="1234.77" gradientUnits="userSpaceOnUse">
<stop stop-color="#DAECFC"/>
<stop offset="0.389964" stop-color="#29C1EB"/>
<stop offset="0.907447" stop-color="#5CB4E3"/>
</linearGradient>
</defs>
</svg>
