<svg width="1920" height="1636" viewBox="0 0 1920 1636" fill="none" xmlns="http://www.w3.org/2000/svg">
<path d="M1551.5 1357C1613.5 1334.5 1691 1309 1818.5 1330.5C1896.93 1343.73 1918.79 1364.14 1924 1377.9V1392.5C1924 1392.5 1927.26 1386.5 1924 1377.9V0H-4.99988V1330.5C-4.99988 1330.5 41.5001 1437.41 208 1330.5C374.5 1223.59 428.5 1571.5 551.5 1624C674.5 1676.5 746.16 1531.28 830.5 1478.5C908 1430 955 1405.84 1133 1460.5C1311 1515.16 1416 1406.17 1551.5 1357Z" fill="url(#paint0_linear_381_362)"/>
<defs>
<linearGradient id="paint0_linear_381_362" x1="-4.99985" y1="8.57413e-05" x2="534" y2="1438.5" gradientUnits="userSpaceOnUse">
<stop offset="0.177467" stop-color="#DAECFC"/>
<stop offset="0.800678" stop-color="#29C1EB"/>
<stop offset="1" stop-color="#5CB4E3"/>
</linearGradient>
</defs>
</svg>
