<svg width="390" height="855" viewBox="0 0 390 855" fill="none" xmlns="http://www.w3.org/2000/svg">
<path d="M314.453 823.912C326.979 819.179 342.635 813.815 368.394 818.338C384.239 821.12 388.655 825.415 389.707 828.308V831.38C389.707 831.38 390.366 830.118 389.707 828.308L389.707 0H0V818.338C0 818.338 9.44531 839.677 39.7109 831.795C69.9766 823.912 72.9555 838.369 97.8047 849.413C122.654 860.456 143.121 853.539 160.16 842.437C175.817 832.234 193.945 834.186 229.905 845.684C265.866 857.182 287.078 834.256 314.453 823.912Z" fill="url(#paint0_linear_403_70)"/>
<defs>
<linearGradient id="paint0_linear_403_70" x1="331.5" y1="1.36417e-06" x2="124.526" y2="847.23" gradientUnits="userSpaceOnUse">
<stop offset="0.111866" stop-color="#ECF6FF"/>
<stop offset="0.684689" stop-color="#29C1EB"/>
<stop offset="1" stop-color="#2B94CB"/>
</linearGradient>
</defs>
</svg>
