<svg width="1920" height="815" viewBox="0 0 1920 815" fill="none" xmlns="http://www.w3.org/2000/svg">
<path d="M1548.08 698.744C1609.74 681.176 1686.82 661.266 1813.63 678.053C1891.64 688.379 1913.38 704.32 1918.56 715.059V726.461C1918.56 726.461 1921.8 721.778 1918.56 715.059L1918.56 -27.5H0V678.053C0 678.053 46.5 757.256 195.5 728C344.5 698.744 359.166 752.402 481.5 793.393C603.834 834.383 704.594 808.71 788.478 767.5C865.559 729.633 954.804 736.878 1131.84 779.553C1308.88 822.229 1413.31 737.137 1548.08 698.744Z" fill="url(#paint0_linear_381_16)"/>
<defs>
<linearGradient id="paint0_linear_381_16" x1="669.5" y1="-208.5" x2="515.367" y2="761.89" gradientUnits="userSpaceOnUse">
<stop offset="0.166113" stop-color="#ECF6FF"/>
<stop offset="0.684689" stop-color="#29C1EB"/>
<stop offset="1" stop-color="#2B94CB"/>
</linearGradient>
</defs>
</svg>
