<svg width="390" height="3303" viewBox="0 0 390 3303" fill="none" xmlns="http://www.w3.org/2000/svg">
<path d="M75.5471 3225.61C63.0215 3219.39 47.3645 3212.35 21.6063 3218.29C5.7608 3221.94 1.34475 3227.58 0.292555 3231.38V3235.42C0.292555 3235.42 -0.365694 3233.76 0.292555 3231.38L0.292555 0.5H390V3218.29C390 3218.29 380.606 3247.83 346.969 3218.29C313.331 3188.75 302.422 3284.88 277.573 3299.39C252.724 3313.9 238.246 3273.77 221.208 3259.18C205.551 3245.78 196.055 3239.11 160.095 3254.21C124.134 3269.31 102.922 3239.2 75.5471 3225.61Z" fill="url(#paint0_linear_390_111)"/>
<defs>
<linearGradient id="paint0_linear_390_111" x1="195" y1="-3.77737e-06" x2="1176.75" y2="3067.58" gradientUnits="userSpaceOnUse">
<stop offset="0.0125031" stop-color="#ECF6FF"/>
<stop offset="0.639124" stop-color="#29C1EB"/>
<stop offset="0.948133" stop-color="#5CB4E3"/>
</linearGradient>
</defs>
</svg>
