<svg width="1920" height="2049" viewBox="0 0 1920 2049" fill="none" xmlns="http://www.w3.org/2000/svg">
<path d="M371.924 1768.35C310.26 1745.73 233.179 1720.09 106.369 1741.71C28.3609 1755 6.62033 1775.53 1.44027 1789.36V1804.04C1.44027 1804.04 -1.80034 1798.01 1.44027 1789.36L1.44027 0H1920V1741.71C1920 1741.71 1873.75 1849.19 1708.15 1741.71C1542.55 1634.23 1488.85 1984 1366.51 2036.78C1244.18 2089.56 1172.91 1943.56 1089.02 1890.5C1011.94 1841.74 965.196 1817.45 788.159 1872.4C611.123 1927.35 506.691 1817.79 371.924 1768.35Z" fill="url(#paint0_linear_381_12)"/>
<defs>
<linearGradient id="paint0_linear_381_12" x1="377.5" y1="52.2838" x2="1647.64" y2="2170.23" gradientUnits="userSpaceOnUse">
<stop offset="0.166113" stop-color="#ECF6FF"/>
<stop offset="0.684689" stop-color="#29C1EB"/>
<stop offset="1" stop-color="#5CB4E3"/>
</linearGradient>
</defs>
</svg>
