<svg width="91" height="91" viewBox="0 0 91 91" fill="none" xmlns="http://www.w3.org/2000/svg">
<g id="icon" clip-path="url(#clip0_381_611)">
<g id="Group 818">
<path id="Vector" d="M38.0737 65.2964C34.1537 68.9068 32.1304 75.806 34.4782 87.937" stroke="#6D6D6D" stroke-width="2" stroke-miterlimit="22.93"/>
<path id="Vector_2" d="M43.7303 89.0693C48.8347 83.4363 56.6073 82.7218 63.8657 84.6148C78.8461 88.5177 93.7169 75.3254 87.0866 53.5999C83.6934 42.4844 79.2971 30.9468 83.0822 17.0899C86.6735 3.9477 77.0884 -2.64222 65.3368 4.49094C53.5851 11.6241 35.3633 17.3281 21.2133 12.8109C7.06752 8.29781 3.82191 14.2024 5.40678 22.7522C10.1361 48.2385 -3.56291 57.0098 3.80505 74.3726C8.49221 85.4129 21.5168 83.2274 17.9761 73.4324C13.5714 59.843 22.8825 54.7574 16.9139 32.1043C15.4429 26.5131 18.7644 24.0184 23.7508 24.8541C36.3033 26.9644 53.2563 26.1955 62.2176 21.6072C66.6139 19.359 70.0745 21.3899 68.9744 27.3864C67.8321 33.617 68.6456 41.1848 71.6046 48.5687C73.4929 53.2823 73.0461 57.8121 70.8206 60.8501" stroke="#6D6D6D" stroke-width="2" stroke-miterlimit="22.93"/>
<g id="Group">
<path id="Vector_3" fill-rule="evenodd" clip-rule="evenodd" d="M54.1413 40.1946C54.3015 39.9104 54.7188 39.9104 54.879 40.1946C60.4513 50.0439 65.2481 54.6072 66.2765 61.4018C67.3767 68.6562 62.7317 75.8019 54.508 75.8019C46.2844 75.8019 41.6394 68.6562 42.7395 61.4018C43.7722 54.6072 48.5648 50.0439 54.1371 40.1946H54.1413Z" stroke="#085EAC" stroke-width="2" stroke-miterlimit="22.93"/>
<path id="Vector_4" d="M53.8046 68.5644C50.8962 67.5699 49.5178 64.9247 50.1037 61.8324C50.6854 58.715 52.6033 55.9696 54.146 53.2576" stroke="#085EAC" stroke-width="2" stroke-miterlimit="22.93"/>
</g>
</g>
</g>
<defs>
<clipPath id="clip0_381_611">
<rect width="90" height="90" fill="white" transform="translate(0.5 0.5)"/>
</clipPath>
</defs>
</svg>
