<svg width="92" height="91" viewBox="0 0 92 91" fill="none" xmlns="http://www.w3.org/2000/svg">
<g id="icon">
<g id="Group 796">
<g id="Group">
<g id="Group_2">
<path id="Vector" d="M37.4815 36.427V41.3451M23.4741 41.3417V36.4236" stroke="#6D6D6D" stroke-width="1.6127" stroke-miterlimit="22.93"/>
<path id="Vector_2" d="M40.2155 30.5732H20.7396C20.6164 30.5732 20.5166 30.673 20.5166 30.796V35.9917C20.5166 36.1148 20.6164 36.2145 20.7396 36.2145H40.2155C40.3387 36.2145 40.4385 36.1148 40.4385 35.9917V30.796C40.4385 30.673 40.3387 30.5732 40.2155 30.5732Z" stroke="#6D6D6D" stroke-width="1.6127" stroke-miterlimit="22.93"/>
<path id="Vector_3" d="M18.0122 70.9635V46.2941C18.0122 43.6209 20.1804 41.4548 22.8563 41.4548H38.1022C40.7781 41.4548 42.9463 43.6209 42.9463 46.2941V75.6692C42.9463 76.2826 42.4489 76.7762 41.8382 76.7762H24.6128" stroke="#6D6D6D" stroke-width="1.6127" stroke-miterlimit="22.93"/>
</g>
<g id="Group_3">
<path id="Vector_4" d="M11.7916 71.1313C12.4126 70.9702 12.9615 70.9634 13.6545 70.9634H19.4935C20.3443 70.9634 20.9755 70.9771 21.7886 71.265C23.2672 71.7962 24.6909 72.6256 24.6806 74.3495V76.1214C24.6944 77.8453 23.2672 78.6747 21.7886 79.2059C20.9721 79.4973 20.3443 79.5075 19.4935 79.5075H13.6545C12.8037 79.5075 12.1724 79.4938 11.3593 79.2059C9.9116 78.685 8.51531 77.8796 8.46729 76.2311" stroke="#C10000" stroke-width="1.6127" stroke-miterlimit="22.93"/>
<path id="Vector_5" fill-rule="evenodd" clip-rule="evenodd" d="M11.394 71.8236L9.93597 74.3495C9.51057 75.0864 9.18466 75.6245 8.52597 76.1831C7.32523 77.1976 5.89464 78.0167 4.40573 77.1427L2.86879 76.2585C1.36959 75.4085 1.36273 73.7566 1.64061 72.2143C1.79499 71.3644 2.10032 70.8126 2.52573 70.0757L3.98376 67.5498L5.44523 65.024C5.87063 64.2871 6.19654 63.749 6.85523 63.1904C8.05597 62.1759 9.48656 61.3568 10.9755 62.2307L12.5124 63.115C14.0116 63.9649 14.0185 65.6134 13.7406 67.1591C13.5862 68.0091 13.2809 68.5609 12.8555 69.2977L11.3974 71.8236H11.394Z" stroke="#C10000" stroke-width="1.6127" stroke-miterlimit="22.93"/>
</g>
</g>
<path id="Vector_6" d="M49.4611 61.4836C46.2706 64.4448 44.6239 70.1032 46.5348 80.0525" stroke="#6D6D6D" stroke-width="1.6127" stroke-miterlimit="22.93"/>
<path id="Vector_7" d="M32.3623 30.2748C33.3298 29.1781 34.359 28.1499 35.7312 28.1499C47.0524 29.1781 59.4029 30.549 70.0379 25.0654C72.0963 24.0372 74.8409 25.7508 74.8409 28.1499C74.4978 32.2626 73.8117 36.0326 74.4978 40.1453C75.1839 43.5726 76.8993 46.6571 77.5854 50.0844C77.9285 52.8262 77.5854 55.568 76.1205 57.8368" stroke="#6D6D6D" stroke-width="1.6127" stroke-miterlimit="22.93"/>
<path id="Vector_8" d="M54.0648 80.9812C58.7134 75.7889 66.2609 76.1316 72.7792 77.5025C77.5821 78.8734 82.042 76.8171 85.4726 73.7325C87.8741 71.3334 89.5894 68.2489 90.2756 64.8216C90.9617 61.3944 90.9617 58.3098 89.9325 54.8826C88.5602 48.3708 86.5018 42.5445 85.1296 35.6899C84.1004 29.5209 85.4726 23.6945 86.8449 17.8682C86.1588 14.7837 85.8157 11.3564 82.7281 9.98549C80.3266 8.95731 77.239 8.95731 74.8376 9.98549C69.0054 12.7273 63.8594 15.8118 57.6842 17.8682C53.5674 19.2391 49.4506 19.9245 45.3338 19.9245C41.5601 19.5818 37.7863 19.2391 34.3556 18.2109C30.925 16.84 26.4651 15.8118 23.7206 19.2391C21.6622 22.6663 22.6914 26.4363 23.3706 29.8533" stroke="#6D6D6D" stroke-width="1.6127" stroke-miterlimit="22.93"/>
<g id="Group_4">
<path id="Vector_9" fill-rule="evenodd" clip-rule="evenodd" d="M62.5386 40.8926C62.6689 40.6595 63.0086 40.6595 63.1389 40.8926C67.6743 48.9706 71.5784 52.7132 72.4155 58.2859C73.3109 64.2356 69.5303 70.0962 62.837 70.0962C56.1438 70.0962 52.3632 64.2356 53.2586 58.2859C54.0991 52.7132 57.9998 48.9706 62.5351 40.8926H62.5386Z" stroke="#085EAC" stroke-width="1.6127" stroke-miterlimit="22.93"/>
<path id="Vector_10" d="M62.2641 64.1603C59.8969 63.3446 58.7751 61.1751 59.2519 58.6389C59.7254 56.0822 61.2863 53.8305 62.5419 51.6062" stroke="#085EAC" stroke-width="1.6127" stroke-miterlimit="22.93"/>
</g>
</g>
</g>
</svg>
