<svg width="52" height="91" viewBox="0 0 52 91" fill="none" xmlns="http://www.w3.org/2000/svg">
<g id="Layer_1" clip-path="url(#clip0_381_646)">
<path id="Vector" fill-rule="evenodd" clip-rule="evenodd" d="M32.8767 66.268L26.9392 73.9473C26.7955 74.1337 26.9048 74.4085 27.136 74.4401L35.7751 75.6815C36.0343 75.7194 36.128 76.048 35.9313 76.2186L20.5801 89.6186C20.3583 89.8113 20.021 89.6091 20.0835 89.3185L22.0293 80.4357C22.0668 80.2588 21.9481 80.0882 21.7732 80.0629L15.9294 79.2669C15.6952 79.2353 15.5859 78.9605 15.7295 78.7709L26.3364 65.0519C26.402 64.9666 26.5113 64.9224 26.6175 64.935L32.6736 65.7689C32.9048 65.8005 33.0172 66.0754 32.8735 66.2649L32.8767 66.268Z" stroke="#C10000" stroke-width="1.5" stroke-miterlimit="22.93"/>
<g id="Group">
<g id="Group_2">
<path id="Vector_2" d="M42.4027 22.4006C44.5984 23.2409 46.1632 25.3826 46.1632 27.8971C46.1632 31.1192 43.599 33.7347 40.4225 33.7695H40.4413C39.1045 40.381 33.3169 45.3563 26.3863 45.3563H25.2619C18.4624 45.3563 12.7654 40.5706 11.2881 34.1485C8.11162 34.1138 5.54736 31.116 5.54736 27.8939C5.54736 25.3795 7.10903 23.2377 9.30786 22.3975" stroke="#6D6D6D" stroke-width="1.5" stroke-linecap="round" stroke-linejoin="round"/>
<path id="Vector_3" d="M9.30147 22.4006C8.5831 21.3392 7.84599 20.0093 7.26505 18.4046C5.47851 13.4799 6.29994 9.05112 6.80905 7.04838C7.63361 7.2853 8.46129 7.52221 9.28585 7.75597C11.2067 8.30246 13.2837 7.79704 14.708 6.38501C19.5429 1.59297 26.7828 0.0924989 32.9076 2.75229C40.5785 6.08492 45.0824 13.9379 42.4026 22.4006L42.0059 22.3122C34.7317 20.7011 27.5043 18.7236 21.5855 14.1559L21.3857 14.0011C19.4586 17.8392 15.9948 20.6537 11.8751 21.7278L9.30147 22.4006Z" stroke="#6D6D6D" stroke-width="1.5" stroke-linecap="round" stroke-linejoin="round"/>
</g>
<g id="Group_3">
<path id="Vector_4" d="M32.5391 44.3582V45.7038C32.5391 47.615 33.7103 49.2481 35.3657 49.9083C35.8779 50.1168 36.4339 50.2305 37.021 50.2305H38.286C44.9043 50.2305 50.2671 55.6575 50.2671 62.3544V88.3047" stroke="#6D6D6D" stroke-width="1.5" stroke-linecap="round" stroke-linejoin="round"/>
<path id="Vector_5" d="M19.5305 44.5225V45.7039C19.5305 47.615 18.3592 49.2482 16.7039 49.9084C16.1916 50.1169 15.6357 50.2306 15.0485 50.2306H13.4181C6.79978 50.2306 1.43701 55.6576 1.43701 62.3544V88.3047" stroke="#6D6D6D" stroke-width="1.5" stroke-linecap="round" stroke-linejoin="round"/>
</g>
</g>
<g id="Group_4">
<path id="Vector_6" d="M11.3877 66.3313V69.8219C11.3877 71.0096 11.4627 72.1942 11.6095 73.3725C12.0155 76.6198 11.8625 79.9114 11.1535 83.105L10.001 88.3046" stroke="#6D6D6D" stroke-width="1.5" stroke-linecap="round" stroke-linejoin="round"/>
<path id="Vector_7" d="M40.3161 66.3313V69.8219C40.3161 71.0096 40.2412 72.1942 40.0944 73.3725C39.6883 76.6198 39.8414 79.9114 40.5504 83.105L41.7029 88.3046" stroke="#6D6D6D" stroke-width="1.5" stroke-linecap="round" stroke-linejoin="round"/>
</g>
<path id="Vector_8" d="M21.3701 39.5977C22.2165 37.7434 24.1436 36.5336 26.2738 36.7105C28.104 36.8684 29.622 38.0183 30.3341 39.5977" stroke="#6D6D6D" stroke-width="2" stroke-linecap="round" stroke-linejoin="round"/>
<g id="Group_5">
<g id="Group_6">
<path id="Vector_9" d="M16.4854 25.2182C18.1438 25.2751 19.768 24.7128 21.0423 23.6198L21.0548 23.6104" stroke="#6D6D6D" stroke-width="2" stroke-linecap="round" stroke-linejoin="round"/>
<path id="Vector_10" d="M20.4959 28.5565C20.4959 29.2254 19.9598 29.7675 19.2985 29.7675C18.6372 29.7675 18.1011 29.2254 18.1011 28.5565C18.1011 27.8876 18.6372 27.3455 19.2985 27.3455C19.9598 27.3455 20.4959 27.8876 20.4959 28.5565Z" fill="#6D6D6D"/>
</g>
<g id="Group_7">
<path id="Vector_11" d="M30.6499 23.6104L30.6624 23.6198C31.9367 24.7096 33.5609 25.2751 35.2193 25.2182" stroke="#6D6D6D" stroke-width="2" stroke-linecap="round" stroke-linejoin="round"/>
<path id="Vector_12" d="M30.8999 28.5565C30.8999 29.2254 31.436 29.7675 32.0973 29.7675C32.7586 29.7675 33.2947 29.2254 33.2947 28.5565C33.2947 27.8876 32.7586 27.3455 32.0973 27.3455C31.436 27.3455 30.8999 27.8876 30.8999 28.5565Z" fill="#6D6D6D"/>
</g>
</g>
</g>
<defs>
<clipPath id="clip0_381_646">
<rect width="50.7042" height="90" fill="white" transform="translate(0.5 0.5)"/>
</clipPath>
</defs>
</svg>
