<svg width="82" height="90" viewBox="0 0 82 90" fill="none" xmlns="http://www.w3.org/2000/svg">
<g id="_&#195;&#144;&#194;&#161;&#195;&#144;&#194;&#187;&#195;&#144;&#194;&#190;&#195;&#144;&#194;&#185;_2" clip-path="url(#clip0_381_673)">
<g id="Group">
<path id="Vector" d="M36.1977 35.3849C36.1977 35.3849 36.2279 35.3849 36.243 35.3849C36.659 35.3622 36.9767 35.0028 36.954 34.5866C36.7989 31.9572 36.6325 30.304 36.4435 29.5322C35.2523 24.6404 34.9308 19.6238 35.4943 14.6223L36.4208 6.38617C36.6779 4.08595 38.7616 2.4251 41.057 2.68236C41.7036 2.75424 42.3087 2.96989 42.8532 3.31795C43.2049 3.54494 43.6738 3.4428 43.8969 3.09095C44.1201 2.73911 44.0217 2.26998 43.6701 2.04677C42.9289 1.57008 42.1083 1.27877 41.2272 1.18041C38.1036 0.828562 35.2712 3.08717 34.9195 6.21593L33.993 14.4521C33.4106 19.6314 33.7434 24.8258 34.9762 29.8916C35.0897 30.3531 35.2636 31.56 35.4451 34.6736C35.4678 35.0746 35.8006 35.3849 36.1977 35.3849Z" fill="#6D6D6D"/>
<path id="Vector_2" d="M75.5067 24.1485C75.9227 24.1485 76.2593 23.8156 76.2631 23.3994L76.4257 6.01911C76.6034 3.10978 74.2361 0.370703 71.2449 0.0377757C68.1213 -0.317851 65.2889 1.94454 64.9372 5.0733L64.162 11.9702C64.1166 12.3863 64.4154 12.7609 64.8276 12.8063C65.2398 12.8517 65.6179 12.5528 65.6633 12.1404L66.4385 5.24354C66.5633 4.13126 67.1154 3.13248 67.989 2.43258C68.8663 1.73268 69.9592 1.41867 71.0747 1.54351C73.2983 1.79321 75.0567 3.80969 74.9168 5.94723C74.9168 5.96236 74.9168 5.97371 74.9168 5.98885L74.7542 23.3881C74.7504 23.8042 75.087 24.1485 75.503 24.1523H75.5105L75.5067 24.1485Z" fill="#6D6D6D"/>
<path id="Vector_3" d="M55.6954 12.8328C56.1114 12.8328 56.4517 12.4923 56.4517 12.0762V5.43276C56.7315 3.15524 58.8001 1.51709 61.0841 1.77056C61.6892 1.83866 62.2602 2.03161 62.7783 2.34562C63.1337 2.56127 63.5989 2.44777 63.8182 2.08836C64.0338 1.72895 63.9203 1.26739 63.5611 1.04796C62.8539 0.620453 62.0787 0.359408 61.2543 0.264827C58.1269 -0.0908001 55.2983 2.17159 54.9466 5.30035C54.9466 5.32683 54.9428 5.3571 54.9428 5.38358V12.0686C54.9428 12.4848 55.2832 12.8253 55.6992 12.8253L55.6954 12.8328Z" fill="#6D6D6D"/>
<path id="Vector_4" d="M45.504 12.8327C45.92 12.8327 46.2603 12.4922 46.2603 12.0761V7.44913L46.5061 5.25862C46.6309 4.14635 47.183 3.14756 48.0566 2.44766C48.9339 1.74776 50.0305 1.43375 51.1423 1.5586C51.5091 1.60021 51.8684 1.68723 52.2087 1.82342C52.5982 1.97475 53.0369 1.78559 53.1882 1.39591C53.3394 1.00624 53.1503 0.567381 52.7608 0.41605C52.2995 0.234454 51.8117 0.113389 51.3125 0.0566403C49.7999 -0.113606 48.3061 0.317685 47.115 1.26728C45.9238 2.21688 45.175 3.57886 45.0048 5.09216L44.7552 7.32429C44.7552 7.35077 44.7515 7.38103 44.7515 7.40752V12.0761C44.7515 12.4922 45.0918 12.8327 45.5078 12.8327H45.504Z" fill="#6D6D6D"/>
<path id="Vector_5" d="M69.0253 88.4412C69.4375 88.4412 69.7778 88.1082 69.7816 87.6921L70.2732 42.2967C70.3488 39.1226 72.1829 36.2435 74.9472 34.9724C75.0796 34.9118 75.2157 34.8513 75.3519 34.7983C78.8309 33.4061 81.2473 30.2319 81.6671 26.5092C81.6671 26.4941 81.6671 26.4789 81.6671 26.4638L81.8184 23.7171C81.8184 23.7171 81.8184 23.6907 81.8184 23.6755V19.5064C81.8184 17.6223 80.9826 15.8555 79.5267 14.66C79.2015 14.3952 78.7288 14.4406 78.4641 14.766C78.1994 15.0875 78.2448 15.5642 78.57 15.829C79.6742 16.737 80.3095 18.0763 80.3095 19.5064V23.6528L80.1658 26.3579C79.8028 29.5169 77.7456 32.2106 74.796 33.3909C74.6334 33.4553 74.4745 33.5234 74.3195 33.5952C71.0333 35.1085 68.8551 38.5135 68.7681 42.2665L68.2728 87.6694C68.269 88.0855 68.6017 88.4298 69.0215 88.4336H69.0291L69.0253 88.4412Z" fill="#6D6D6D"/>
</g>
<path id="Vector_6" d="M47.7651 39.1606C50.2647 39.1606 52.2954 37.129 52.2954 34.6283C52.2954 32.1276 50.2647 30.0959 47.7651 30.0959C45.2655 30.0959 43.2348 32.1276 43.2348 34.6283C43.2348 37.129 45.2655 39.1606 47.7651 39.1606ZM47.7651 31.6093C49.429 31.6093 50.7828 32.9637 50.7828 34.6283C50.7828 36.2929 49.429 37.6473 47.7651 37.6473C46.1012 37.6473 44.7474 36.2929 44.7474 34.6283C44.7474 32.9637 46.1012 31.6093 47.7651 31.6093Z" fill="#C10000"/>
<path id="Vector_7" d="M59.4316 62.1477C61.9274 62.1477 63.9619 60.1161 63.9619 57.6154C63.9619 55.1146 61.9312 53.083 59.4316 53.083C56.932 53.083 54.9013 55.1146 54.9013 57.6154C54.9013 60.1161 56.932 62.1477 59.4316 62.1477ZM59.4316 54.6001C61.0955 54.6001 62.4493 55.9545 62.4493 57.6191C62.4493 59.2838 61.0955 60.6382 59.4316 60.6382C57.7677 60.6382 56.4139 59.2838 56.4139 57.6191C56.4139 55.9545 57.7677 54.6001 59.4316 54.6001Z" fill="#C10000"/>
<path id="Vector_8" d="M56.2588 43.3335C56.6748 43.3335 57.0151 42.993 57.0151 42.5769V42.244C57.0151 41.8278 56.6748 41.4873 56.2588 41.4873C55.8428 41.4873 55.5025 41.8278 55.5025 42.244V42.5769C55.5025 42.993 55.8428 43.3335 56.2588 43.3335Z" fill="#C10000"/>
<path id="Vector_9" d="M61.6968 73.4141C61.8972 73.4141 62.0901 73.3347 62.23 73.1909C62.3737 73.0509 62.4531 72.8618 62.4531 72.6575C62.4531 72.4532 62.3737 72.264 62.23 72.124C62.196 72.09 62.1582 72.0559 62.1166 72.0294C62.075 72.003 62.0334 71.9765 61.9842 71.9576C61.9388 71.9386 61.8935 71.9273 61.8443 71.9159C61.5985 71.8668 61.3376 71.9462 61.1636 72.124C61.0199 72.264 60.9405 72.4569 60.9405 72.6575C60.9405 72.858 61.0199 73.0509 61.1636 73.1909C61.3035 73.3347 61.4926 73.4141 61.6968 73.4141Z" fill="#C10000"/>
<path id="Vector_10" d="M54.6856 84.0452C55.1016 84.0452 55.4419 83.7047 55.4419 83.2886V82.1234C55.4419 81.7072 55.1016 81.3667 54.6856 81.3667C54.2696 81.3667 53.9293 81.7072 53.9293 82.1234V83.2886C53.9293 83.7047 54.2696 84.0452 54.6856 84.0452Z" fill="#C10000"/>
<path id="Vector_11" d="M25.6847 90.0001C39.8467 90.0001 51.3691 78.4725 51.3691 64.3004C51.3691 50.1283 39.8467 38.6045 25.6847 38.6045C11.5227 38.6045 -0.00357437 50.1321 -0.00357437 64.3004C-0.00357437 78.4687 11.5189 90.0001 25.6847 90.0001ZM25.6847 40.1178C39.0147 40.1178 49.8565 50.9682 49.8565 64.3004C49.8565 77.6326 39.0109 88.4868 25.6847 88.4868C12.3584 88.4868 1.50906 77.6364 1.50906 64.3004C1.50906 50.9644 12.3546 40.1178 25.6847 40.1178Z" fill="#6D6D6D"/>
<path id="Vector_12" d="M25.6845 70.9248C29.3337 70.9248 32.3022 67.9549 32.3022 64.3041C32.3022 60.6532 29.3337 57.6833 25.6845 57.6833C22.0353 57.6833 19.0667 60.6532 19.0667 64.3041C19.0667 67.9549 22.0353 70.9248 25.6845 70.9248ZM25.6845 59.1929C28.5018 59.1929 30.7896 61.4855 30.7896 64.3003C30.7896 67.115 28.498 69.4077 25.6845 69.4077C22.871 69.4077 20.5794 67.115 20.5794 64.3003C20.5794 61.4855 22.871 59.1929 25.6845 59.1929Z" fill="#C10000"/>
<path id="Vector_13" d="M25.6848 80.5949C27.1294 80.5949 28.2487 79.5129 29.2395 78.5595C29.8597 77.9617 30.442 77.398 31.0093 77.1597C31.6181 76.9062 32.4992 76.8873 33.35 76.8684C34.7606 76.8343 36.2203 76.8003 37.1997 75.8242C38.1791 74.8481 38.2132 73.384 38.2434 71.9728C38.2623 71.1216 38.285 70.2363 38.5346 69.6272C38.769 69.0597 39.3325 68.4771 39.9338 67.8566C40.8867 66.8692 41.9683 65.7494 41.9683 64.3004C41.9683 62.8514 40.8867 61.7353 39.9338 60.7441C39.3363 60.1236 38.7728 59.541 38.5346 58.9735C38.2812 58.3644 38.2623 57.4829 38.2434 56.6279C38.2094 55.2168 38.1753 53.7564 37.1997 52.7766C36.2203 51.7967 34.7606 51.7626 33.35 51.7324C32.4992 51.7135 31.6143 51.6908 31.0055 51.4411C30.4382 51.2065 29.8559 50.6428 29.2357 50.0413C28.2487 49.0879 27.1294 48.0059 25.681 48.0059C24.2327 48.0059 23.1133 49.0879 22.1263 50.0413C21.5061 50.639 20.9238 51.2027 20.3566 51.4373C19.7477 51.6908 18.8666 51.7097 18.012 51.7286C16.6014 51.7626 15.1418 51.7967 14.1623 52.7728C13.1829 53.7526 13.1489 55.213 13.1186 56.6241C13.0997 57.4754 13.077 58.3606 12.8274 58.9697C12.593 59.5372 12.0295 60.1199 11.4282 60.7403C10.4753 61.7277 9.39376 62.8476 9.39376 64.2966C9.39376 65.7456 10.4753 66.8616 11.4282 67.8528C12.0257 68.4733 12.5892 69.0559 12.8274 69.6234C13.0808 70.2325 13.0997 71.114 13.1186 71.9653C13.1526 73.3764 13.1867 74.8367 14.1623 75.8166C15.138 76.7965 16.6014 76.8305 18.012 76.8608C18.8628 76.8797 19.7439 76.9024 20.3528 77.1521C20.92 77.3867 21.5024 77.9504 22.1225 78.5519C23.1095 79.5053 24.2289 80.5873 25.6772 80.5873L25.6848 80.5949ZM25.6848 49.5267C26.5205 49.5267 27.3298 50.3099 28.1882 51.1384C28.8802 51.808 29.5987 52.5004 30.4307 52.8446C31.3004 53.2041 32.3252 53.2305 33.316 53.2532C34.4807 53.2797 35.5812 53.3062 36.1295 53.8548C36.6778 54.4034 36.7043 55.5043 36.7308 56.6695C36.7535 57.6607 36.7762 58.686 37.1392 59.5562C37.4833 60.3885 38.1753 61.1035 38.8447 61.7996C39.6728 62.6584 40.4556 63.468 40.4556 64.3041C40.4556 65.1402 39.6728 65.9499 38.8447 66.8087C38.1753 67.501 37.4833 68.2198 37.1392 69.0521C36.7799 69.9223 36.7535 70.9476 36.7308 71.9388C36.7043 73.104 36.6778 74.2049 36.1295 74.7535C35.5812 75.3021 34.4807 75.3286 33.316 75.355C32.3252 75.3777 31.3004 75.4004 30.4307 75.7636C29.5987 76.1079 28.884 76.8003 28.1882 77.4699C27.3298 78.2984 26.5205 79.0816 25.6848 79.0816C24.8491 79.0816 24.0398 78.2984 23.1814 77.4699C22.4894 76.8003 21.7709 76.1079 20.9389 75.7636C20.0691 75.4042 19.0443 75.3777 18.0536 75.355C16.8888 75.3286 15.7884 75.3021 15.2401 74.7535C14.6918 74.2049 14.6653 73.104 14.6388 71.9388C14.6161 70.9476 14.5934 69.9223 14.2304 69.0521C13.8863 68.2198 13.1942 67.5048 12.5249 66.8087C11.6967 65.9499 10.914 65.1402 10.914 64.3041C10.914 63.468 11.6967 62.6584 12.5249 61.7996C13.1942 61.1073 13.8863 60.3885 14.2304 59.5562C14.5896 58.686 14.6161 57.6607 14.6388 56.6695C14.6653 55.5043 14.6918 54.4034 15.2401 53.8548C15.7884 53.3062 16.8888 53.2797 18.0536 53.2532C19.0443 53.2305 20.0691 53.2078 20.9389 52.8446C21.7709 52.5004 22.4856 51.808 23.1814 51.1384C24.0398 50.3099 24.8491 49.5267 25.6848 49.5267Z" fill="#C10000"/>
</g>
<defs>
<clipPath id="clip0_381_673">
<rect width="81.8182" height="90" fill="white" transform="matrix(-1 0 0 1 81.8184 0)"/>
</clipPath>
</defs>
</svg>
